<svg height="488pt" viewBox="-1 0 488 488.636" width="488pt" xmlns="http://www.w3.org/2000/svg"><path d="m106.101562 287.59375v140.734375c0 5.832031 4.15625 10.558594 9.28125 10.558594h264.511719c5.128907 0 9.28125-4.726563 9.28125-10.558594v-140.734375zm0 0" fill="#e0ebfc"/><path d="m379.894531 442.886719h-264.511719c-7.324218 0-13.28125-6.527344-13.28125-14.554688v-140.734375c0-2.210937 1.792969-4 4-4h283.074219c2.207031 0 4 1.789063 4 4v140.734375c0 8.027344-5.957031 14.554688-13.28125 14.554688zm-269.792969-151.292969v136.734375c0 3.617187 2.371094 6.558594 5.28125 6.558594h264.511719c2.914063 0 5.28125-2.941407 5.28125-6.558594v-136.734375zm0 0" fill="#3762cc"/><path d="m303.476562 362.144531c0 32.671875-26.488281 59.160157-59.160156 59.160157s-59.15625-26.488282-59.15625-59.160157 26.484375-59.15625 59.15625-59.15625 59.160156 26.484375 59.160156 59.15625zm0 0" fill="#6bdddd"/><path d="m244.316406 425.304688c-34.824218 0-63.160156-28.332032-63.160156-63.160157 0-34.824219 28.335938-63.15625 63.160156-63.15625 34.828125 0 63.160156 28.332031 63.160156 63.15625 0 34.828125-28.332031 63.160157-63.160156 63.160157zm0-118.316407c-30.414062 0-55.160156 24.742188-55.160156 55.15625 0 30.414063 24.746094 55.160157 55.160156 55.160157 30.417969 0 55.160156-24.746094 55.160156-55.160157 0-30.414062-24.742187-55.15625-55.160156-55.15625zm0 0" fill="#3762cc"/><path d="m93.839844 165.828125c0-10.855469-6.003906-20.3125-14.910156-25.417969-2.1875-14.140625-14.585938-24.992187-29.601563-24.992187s-27.417969 10.851562-29.601563 24.992187c-8.910156 5.105469-14.910156 14.5625-14.910156 25.417969 0 13.070313 8.6875 24.136719 20.695313 27.976563 4.675781 6.007812 11.691406 10.257812 19.933593 11.316406 11 1.414062 21.367188-3.242188 27.667969-11.304688 12.023438-3.828125 20.726563-14.90625 20.726563-27.988281zm0 0" fill="#f9cfcf"/><path d="m45.441406 205.121094c-1.339844-.171875-2.632812-.457032-3.90625-.792969v31.585937c0 4.027344 3.625 7.285157 8.101563 7.285157 4.472656 0 8.097656-3.261719 8.097656-7.285157v-31.734374c-3.871094 1.117187-8.03125 1.492187-12.292969.941406zm0 0" fill="#e0ebfc"/><path d="m49.273438 209.367188c-1.441407 0-2.890626-.089844-4.339844-.277344-8.613282-1.105469-16.308594-5.304688-21.804688-11.875-13.398437-4.804688-22.3125-17.269532-22.3125-31.386719 0-11.214844 5.816406-21.738281 15.304688-27.898437 3.277344-15.242188 17.226562-26.515626 33.207031-26.515626s29.929687 11.273438 33.207031 26.515626c9.488282 6.160156 15.304688 16.683593 15.304688 27.898437 0 14.136719-8.933594 26.609375-22.351563 31.402344-6.488281 7.707031-16.167969 12.136719-26.214843 12.136719zm.054687-89.949219c-12.71875 0-23.746094 9.289062-25.648437 21.605469-.1875 1.203124-.910157 2.253906-1.964844 2.859374-7.957032 4.558594-12.898438 12.96875-12.898438 21.949219 0 11.03125 7.199219 20.738281 17.914063 24.164063.765625.246094 1.445312.71875 1.941406 1.355468 4.226563 5.4375 10.367187 8.921876 17.28125 9.804688 9.175781 1.175781 18.367187-2.578125 24.011719-9.800781.496094-.632813 1.171875-1.101563 1.9375-1.347657 10.730468-3.414062 17.941406-13.132812 17.941406-24.175781 0-8.976562-4.945312-17.386719-12.898438-21.949219-1.058593-.605468-1.78125-1.65625-1.964843-2.859374-1.90625-12.320313-12.933594-21.605469-25.652344-21.605469zm0 0" fill="#3762cc"/><path d="m49.636719 247.199219c-6.671875 0-12.101563-5.0625-12.101563-11.285157v-31.585937c0-1.238281.578125-2.414063 1.5625-3.171875.980469-.753906 2.265625-1.015625 3.460938-.695312 1.292968.339843 2.371094.5625 3.394531.691406 3.605469.460937 7.191406.191406 10.671875-.816406 1.210938-.351563 2.511719-.113282 3.515625.644531 1.003906.753906 1.59375 1.941406 1.59375 3.199219v31.734374c0 6.222657-5.425781 11.285157-12.097656 11.285157zm-4.101563-38.039063v26.753906c0 1.785157 1.878906 3.289063 4.101563 3.289063 2.222656 0 4.097656-1.503906 4.097656-3.289063v-26.824218c-2.707031.351562-5.449219.375-8.199219.070312zm0 0" fill="#3762cc"/><path d="m316.394531 211.550781h-137.992187c-4.171875 0-7.550782-3.382812-7.550782-7.554687s3.378907-7.554688 7.550782-7.554688h137.992187c4.171875 0 7.554688 3.382813 7.554688 7.554688s-3.382813 7.554687-7.554688 7.554687zm0 0" fill="#6bdddd"/><path d="m182.457031 211.550781 3.433594 31.648438 61.621094-.1875 61.621093.1875 3.433594-31.648438zm0 0" fill="#6bdddd"/><path d="m314.894531 196.441406c.238281 0 .460938.042969.691407.058594v-4.96875c0-14.855469-14.429688-26.898438-32.226563-26.898438h-70.316406c-17.796875 0-32.226563 12.042969-32.226563 26.898438v4.910156zm0 0" fill="#e0ebfc"/><path d="m110.339844 270.222656h-98.023438c-4.417968 0-8-3.582031-8-8v-11.023437c0-4.417969 3.582032-8 8-8h98.023438c4.417968 0 8 3.582031 8 8v11.023437c0 4.417969-3.582032 8-8 8zm0 0" fill="#f9cfcf"/><path d="m110.339844 274.222656h-98.023438c-6.617187 0-12-5.382812-12-12v-11.023437c0-6.621094 5.382813-12 12-12h98.023438c6.617187 0 12 5.378906 12 12v11.023437c0 6.617188-5.386719 12-12 12zm-98.023438-27.023437c-2.203125 0-4 1.792969-4 4v11.023437c0 2.207032 1.796875 4 4 4h98.023438c2.203125 0 4-1.792968 4-4v-11.023437c0-2.207031-1.796875-4-4-4zm0 0" fill="#3762cc"/><path d="m348.148438 100.0625v159.1875h26.5v-159.1875zm0 0" fill="#a4c9ff"/><path d="m120.148438 100.0625v159.1875h26.5v-159.1875zm0 0" fill="#a4c9ff"/><path d="m374.648438 263.25h-26.5c-2.207032 0-4-1.792969-4-4v-159.1875c0-2.207031 1.792968-4 4-4h26.5c2.207031 0 4 1.792969 4 4v159.1875c0 2.207031-1.792969 4-4 4zm-22.5-8h18.5v-151.1875h-18.5zm0 0" fill="#3762cc"/><path d="m146.648438 263.25h-26.5c-2.207032 0-4-1.792969-4-4v-159.1875c0-2.207031 1.792968-4 4-4h26.5c2.207031 0 4 1.792969 4 4v159.1875c0 2.207031-1.792969 4-4 4zm-22.5-8h18.5v-151.1875h-18.5zm0 0" fill="#3762cc"/><path d="m391.375 287.597656h-287.953125c-3.011719 0-5.453125-2.441406-5.453125-5.453125v-33.492187c0-3.011719 2.441406-5.453125 5.453125-5.453125h287.953125c3.011719 0 5.453125 2.441406 5.453125 5.453125v33.492187c0 3.007813-2.441406 5.453125-5.453125 5.453125zm0 0" fill="#4671c6"/><path d="m391.375 291.59375h-287.953125c-5.210937 0-9.453125-4.238281-9.453125-9.453125v-33.492187c0-5.210938 4.242188-9.453126 9.453125-9.453126h287.957031c5.210938 0 9.449219 4.242188 9.449219 9.453126v33.492187c0 5.214844-4.238281 9.453125-9.453125 9.453125zm-287.953125-44.394531c-.800781 0-1.453125.652343-1.453125 1.453125v33.492187c0 .800781.652344 1.453125 1.453125 1.453125h287.957031c.800782 0 1.449219-.652344 1.449219-1.453125v-33.492187c0-.800782-.648437-1.453125-1.449219-1.453125zm0 0" fill="#3762cc"/><path d="m472.414062 216.652344h-53.324218c-5.378906 0-10.453125 2.613281-13.578125 6.988281l-13.976563 19.574219c2.9375.085937 5.292969 2.480468 5.292969 5.433594v21.570312l23.96875-33.566406h51.621094c5.523437 0 10-4.476563 10-10 0-5.523438-4.476563-10-10.003907-10zm0 0" fill="#6bdddd"/><path d="m396.828125 274.222656c-.40625 0-.816406-.0625-1.21875-.191406-1.65625-.53125-2.78125-2.070312-2.78125-3.808594v-21.570312c0-.785156-.621094-1.417969-1.410156-1.441406-1.476563-.039063-2.808594-.894532-3.464844-2.21875-.65625-1.320313-.53125-2.898438.328125-4.101563l13.976562-19.574219c3.875-5.425781 10.164063-8.664062 16.832032-8.664062h53.324218c7.722657 0 14 6.28125 14 14s-6.277343 14-14 14h-49.558593l-22.769531 31.894531c-.769532 1.070313-1.988282 1.675781-3.257813 1.675781zm.808594-32.667968c1.964843 1.726562 3.191406 4.257812 3.191406 7.097656v9.082031l16.714844-23.40625c.75-1.050781 1.964843-1.675781 3.253906-1.675781h51.621094c3.308593 0 6-2.691406 6-6s-2.691407-6-6-6h-53.328125c-4.085938 0-7.945313 1.984375-10.320313 5.3125zm0 0" fill="#3762cc"/><path d="m397.269531 432.214844c0 28.949218-23.472656 52.421875-52.421875 52.421875-28.953125 0-52.421875-23.472657-52.421875-52.421875 0-28.953125 23.46875-52.421875 52.421875-52.421875 28.949219 0 52.421875 23.46875 52.421875 52.421875zm0 0" fill="#a4c9ff"/><path d="m370.726562 432.214844c0 14.292968-11.585937 25.878906-25.878906 25.878906-14.292968 0-25.882812-11.585938-25.882812-25.878906 0-14.292969 11.589844-25.878906 25.882812-25.878906 14.292969 0 25.878906 11.585937 25.878906 25.878906zm0 0" fill="#f9cfcf"/><path d="m344.847656 488.636719c-31.113281 0-56.421875-25.3125-56.421875-56.421875 0-31.113282 25.308594-56.421875 56.421875-56.421875 31.109375 0 56.421875 25.308593 56.421875 56.421875 0 31.109375-25.3125 56.421875-56.421875 56.421875zm0-104.84375c-26.703125 0-48.421875 21.722656-48.421875 48.421875 0 26.699218 21.71875 48.421875 48.421875 48.421875 26.699219 0 48.421875-21.722657 48.421875-48.421875 0-26.699219-21.722656-48.421875-48.421875-48.421875zm0 0" fill="#3762cc"/><path d="m344.847656 462.09375c-16.476562 0-29.882812-13.402344-29.882812-29.878906 0-16.476563 13.40625-29.878906 29.882812-29.878906 16.472656 0 29.878906 13.402343 29.878906 29.878906 0 16.472656-13.40625 29.878906-29.878906 29.878906zm0-51.757812c-12.066406 0-21.882812 9.8125-21.882812 21.878906 0 12.0625 9.816406 21.878906 21.882812 21.878906 12.0625 0 21.878906-9.816406 21.878906-21.878906 0-12.066406-9.816406-21.878906-21.878906-21.878906zm0 0" fill="#3762cc"/><path d="m179.121094 441.835938c0-23.636719-19.324219-42.800782-43.160156-42.800782-23.835938 0-43.160157 19.164063-43.160157 42.800782 0 23.636718 19.324219 42.800781 43.160157 42.800781 23.835937 0 43.160156-19.164063 43.160156-42.800781zm0 0" fill="#a4c9ff"/><path d="m157.269531 441.835938c0-11.667969-9.539062-21.128907-21.308593-21.128907-11.765626 0-21.308594 9.460938-21.308594 21.128907 0 11.667968 9.542968 21.128906 21.308594 21.128906 11.769531 0 21.308593-9.460938 21.308593-21.128906zm0 0" fill="#f9cfcf"/><path d="m135.960938 488.636719c-26.003907 0-47.160157-20.996094-47.160157-46.796875 0-25.808594 21.15625-46.800782 47.160157-46.800782 26.003906 0 47.160156 20.992188 47.160156 46.800782 0 25.800781-21.15625 46.796875-47.160156 46.796875zm0-85.601563c-21.59375 0-39.160157 17.40625-39.160157 38.800782 0 21.394531 17.566407 38.800781 39.160157 38.800781s39.160156-17.40625 39.160156-38.796875c0-21.394532-17.566406-38.804688-39.160156-38.804688zm0 0" fill="#3762cc"/><path d="m135.960938 466.964844c-13.953126 0-25.308594-11.273438-25.308594-25.128906 0-13.855469 11.355468-25.128907 25.308594-25.128907 13.957031 0 25.308593 11.273438 25.308593 25.128907 0 13.855468-11.355469 25.128906-25.308593 25.128906zm0-42.257813c-9.542969 0-17.308594 7.683594-17.308594 17.128907 0 9.441406 7.765625 17.128906 17.308594 17.128906 9.546874 0 17.308593-7.6875 17.308593-17.128906 0-9.445313-7.761719-17.128907-17.308593-17.128907zm0 0" fill="#3762cc"/><path d="m255.390625 311.753906c-8.230469-8.234375-19.875-10.9375-30.375-8.175781-12.355469-9.097656-29.8125-8.09375-40.992187 3.085937-11.179688 11.179688-12.183594 28.640626-3.085938 40.992188-2.761719 10.5-.0625 22.144531 8.171875 30.378906 9.914063 9.910156 24.773437 11.835938 36.625 5.804688 8.039063 1.074218 16.484375-.925782 23.421875-6.253906 9.265625-7.121094 13.453125-18.371094 12.027344-29.179688 6.050781-11.855469 4.128906-26.730469-5.792969-36.652344zm0 0" fill="#f9cfcf"/><path d="m284.574219 395.785156-27.371094-27.375c-2 3.457032-4.683594 6.589844-8.046875 9.175782-1.117188.859374-2.28125 1.597656-3.46875 2.285156l27.402344 27.402344c3.171875 3.171874 8.3125 3.171874 11.484375 0 3.171875-3.175782 3.171875-8.316407 0-11.488282zm0 0" fill="#e0ebfc"/><path d="m316.394531 215.550781h-137.992187c-6.371094 0-11.550782-5.183593-11.550782-11.554687 0-6.367188 5.179688-11.550782 11.550782-11.550782h137.992187c6.371094 0 11.554688 5.183594 11.554688 11.550782 0 6.371094-5.183594 11.554687-11.554688 11.554687zm-137.992187-15.109375c-1.957032 0-3.550782 1.59375-3.550782 3.554688 0 1.957031 1.59375 3.550781 3.550782 3.550781h137.992187c1.960938 0 3.554688-1.59375 3.554688-3.550781 0-1.960938-1.59375-3.554688-3.554688-3.554688zm0 0" fill="#3762cc"/><path d="m309.132812 247.199219c-.003906 0-.007812 0-.011718 0l-61.621094-.191407-61.59375.191407c-.003906 0-.007812 0-.011719 0-2.042969 0-3.757812-1.539063-3.976562-3.570313l-3.433594-31.648437c-.125-1.125.242187-2.257813 1-3.101563.757813-.847656 1.839844-1.328125 2.976563-1.328125h130.105468c1.136719 0 2.21875.480469 2.980469 1.328125.757813.84375 1.121094 1.972656 1 3.101563l-3.433594 31.648437c-.226562 2.03125-1.9375 3.570313-3.980469 3.570313zm-61.632812-8.1875 58.042969.175781 2.566406-23.636719h-121.195313l2.566407 23.636719zm0 0" fill="#3762cc"/><path d="m315.585938 200.503906c-.089844 0-.179688-.007812-.269532-.011718-.15625-.011719-.304687-.027344-.457031-.042969l.035156-.003907h-134.078125c-2.207031 0-4-1.792968-4-4v-4.914062c0-17.035156 16.253906-30.894531 36.226563-30.894531h70.316406c19.976563 0 36.226563 13.859375 36.226563 30.894531v4.96875c0 1.109375-.460938 2.164062-1.269532 2.921875-.742187.695313-1.71875 1.082031-2.730468 1.082031zm-130.769532-8.0625h126.769532v-.910156c0-12.628906-12.664063-22.894531-28.226563-22.894531h-70.316406c-15.5625 0-28.226563 10.269531-28.226563 22.894531zm0 0" fill="#3762cc"/><path d="m85.894531 106.953125v7.59375c0 16.941406 11.949219 30.675781 26.691407 30.675781h1.089843c14.738281 0 26.6875-13.734375 26.6875-30.675781v-14.484375h-54.03125c-.289062 2.277344-.4375 4.582031-.4375 6.890625zm0 0" fill="#f9a7a7"/><path d="m118.304688 3.996094c-1.160157 0-2.28125.191406-3.328126.542968-2.097656.707032-3.898437 2.0625-5.109374 3.851563-.605469.890625-1.066407 1.894531-1.34375 2.972656l-20.9375 82.082031c-.554688 2.171876-.972657 4.378907-1.253907 6.613282h54.035157l16.21875-96.0625zm0 0" fill="#f9a7a7"/><path d="m353.511719 100.0625v14.71875c0 16.8125 11.859375 30.441406 26.484375 30.441406h1.5c14.628906 0 26.488281-13.628906 26.488281-30.441406v-7.820312c0-2.3125-.148437-4.617188-.4375-6.898438zm0 0" fill="#e0ebfc"/><path d="m407.546875 100.0625c-.28125-2.234375-.699219-4.449219-1.253906-6.621094l-20.9375-82.074218c-.277344-1.082032-.734375-2.082032-1.339844-2.976563-1.214844-1.785156-3.015625-3.144531-5.113281-3.847656-1.046875-.355469-2.167969-.542969-3.328125-.542969h-38.28125l16.21875 96.0625zm0 0" fill="#e0ebfc"/><path d="m264.148438 3.996094h-17.210938v96.066406h52.867188l-8.042969-96.066406zm0 0" fill="#e0ebfc"/><path d="m246.894531 3.996094h-44.777343l-8.046876 96.066406h52.867188v-96.066406zm0 0" fill="#f9a7a7"/><path d="m156.585938 3.996094-16.21875 96.066406h53.707031l8.042969-96.066406zm0 0" fill="#e0ebfc"/><path d="m337.292969 3.996094h-45.53125l8.042969 96.066406h53.707031zm0 0" fill="#f9a7a7"/><path d="m167.21875 145.222656c-14.828125 0-26.851562-12.019531-26.851562-26.851562v-18.308594h53.707031v18.308594c-.003907 14.832031-12.023438 26.851562-26.855469 26.851562zm0 0" fill="#e0ebfc"/><path d="m220.507812 145.222656c-14.601562 0-26.433593-11.832031-26.433593-26.429687v-18.730469h52.867187v18.730469c-.003906 14.597656-11.835937 26.429687-26.433594 26.429687zm0 0" fill="#f9a7a7"/><path d="m273.371094 145.222656c-14.597656 0-26.429688-11.832031-26.429688-26.429687v-18.730469h52.863282v18.730469c0 14.597656-11.835938 26.429687-26.433594 26.429687zm0 0" fill="#e0ebfc"/><path d="m326.660156 145.222656c-14.832031 0-26.851562-12.019531-26.851562-26.851562v-18.308594h53.707031v18.308594c-.003906 14.832031-12.027344 26.851562-26.855469 26.851562zm0 0" fill="#f9a7a7"/><g fill="#3762cc"><path d="m299.804688 104.0625h-52.820313c-2.207031 0-4.046875-1.792969-4.046875-4v-96.0625c0-2.207031 1.792969-4 4-4h44.824219c2.082031 0 3.8125 1.59375 3.984375 3.664062l8.046875 96.0625c.089843 1.117188-.285157 2.21875-1.042969 3.042969s-1.824219 1.292969-2.945312 1.292969zm-48.867188-8h44.519531l-7.375-88.0625h-37.144531zm0 0"/><path d="m246.9375 104.0625h-52.867188c-1.117187 0-2.183593-.46875-2.941406-1.292969-.757812-.820312-1.136718-1.925781-1.042968-3.042969l8.042968-96.0625c.175782-2.070312 1.90625-3.664062 3.988282-3.664062h44.820312c2.207031 0 4 1.792969 4 4v96.0625c0 2.207031-1.789062 4-4 4zm-48.515625-8h44.515625v-88.0625h-37.140625zm0 0"/><path d="m194.070312 104.0625h-53.703124c-1.179688 0-2.296876-.519531-3.054688-1.417969-.761719-.898437-1.085938-2.089843-.890625-3.25l16.21875-96.058593c.324219-1.929688 1.992187-3.335938 3.945313-3.335938h45.53125c1.121093 0 2.1875.46875 2.945312 1.292969.753906.820312 1.132812 1.925781 1.042969 3.042969l-8.046875 96.058593c-.171875 2.074219-1.90625 3.667969-3.988282 3.667969zm-48.96875-8h45.292969l7.375-88.0625h-37.804687zm0 0"/><path d="m353.511719 104.0625h-53.707031c-2.078126 0-3.8125-1.59375-3.984376-3.667969l-8.042968-96.058593c-.09375-1.117188.285156-2.21875 1.039062-3.042969.757813-.824219 1.828125-1.292969 2.945313-1.292969h45.53125c1.953125 0 3.621093 1.40625 3.945312 3.335938l16.21875 96.058593c.195313 1.160157-.132812 2.351563-.890625 3.25-.761718.898438-1.875 1.417969-3.054687 1.417969zm-50.027344-8h45.292969l-14.867188-88.0625h-37.800781zm0 0"/><path d="m113.679688 149.222656h-1.09375c-16.921876 0-30.6875-15.554687-30.6875-34.675781v-7.59375c0-4.910156.609374-9.789063 1.8125-14.496094l20.9375-82.078125c1.5625-6.113281 7.175781-10.378906 13.660156-10.378906h38.28125c1.175781 0 2.292968.519531 3.050781 1.417969.761719.898437 1.085937 2.089843.890625 3.246093l-16.164062 95.734376v14.148437c0 19.121094-13.765626 34.675781-30.6875 34.675781zm4.625-141.222656c-2.820313 0-5.25 1.792969-5.90625 4.355469l-20.9375 82.082031c-1.039063 4.058594-1.566407 8.273438-1.566407 12.519531v7.589844c0 14.710937 10.179688 26.679687 22.691407 26.679687h1.089843c12.511719 0 22.6875-11.964843 22.6875-26.679687v-14.484375c0-.21875.019531-.445312.058594-.664062l15.429687-91.394532h-33.546874zm0 0"/><path d="m167.21875 149.222656c-17.011719 0-30.851562-13.839844-30.851562-30.851562v-18.308594c0-2.207031 1.789062-4 4-4h53.703124c2.210938 0 4 1.792969 4 4v18.308594c0 17.011718-13.839843 30.851562-30.851562 30.851562zm-22.851562-45.160156v14.308594c0 12.601562 10.25 22.851562 22.851562 22.851562s22.851562-10.25 22.851562-22.851562v-14.308594zm0 0"/><path d="m220.507812 149.222656c-16.78125 0-30.433593-13.652344-30.433593-30.429687v-18.730469c0-2.207031 1.792969-4 4-4h52.867187c2.207032 0 4 1.792969 4 4v18.730469c-.003906 16.777343-13.65625 30.429687-30.433594 30.429687zm-22.4375-45.160156v14.730469c0 12.367187 10.066407 22.429687 22.433594 22.429687 12.367188 0 22.433594-10.0625 22.433594-22.429687v-14.730469zm0 0"/><path d="m273.371094 149.222656c-16.777344 0-30.429688-13.652344-30.429688-30.429687v-18.730469c0-2.207031 1.789063-4 4-4h52.863282c2.210937 0 4 1.792969 4 4v18.730469c0 16.777343-13.652344 30.429687-30.433594 30.429687zm-22.429688-45.160156v14.730469c0 12.367187 10.0625 22.429687 22.429688 22.429687 12.367187 0 22.433594-10.0625 22.433594-22.429687v-14.730469zm0 0"/><path d="m326.65625 149.222656c-17.011719 0-30.851562-13.839844-30.851562-30.851562v-18.308594c0-2.207031 1.792968-4 4-4h53.707031c2.207031 0 4 1.792969 4 4v18.308594c0 17.011718-13.839844 30.851562-30.855469 30.851562zm-22.851562-45.160156v14.308594c0 12.601562 10.253906 22.851562 22.851562 22.851562 12.605469 0 22.855469-10.25 22.855469-22.851562v-14.308594zm0 0"/><path d="m381.496094 149.222656h-1.5c-16.808594 0-30.484375-15.449218-30.484375-34.441406v-14.382812l-16.164063-95.734376c-.195312-1.15625.128906-2.347656.890625-3.246093.757813-.898438 1.875-1.417969 3.054688-1.417969h38.277343c6.484376 0 12.101563 4.269531 13.660157 10.378906l20.941406 82.078125c1.199219 4.707031 1.808594 9.585938 1.808594 14.496094v7.828125c0 18.992188-13.671875 34.441406-30.484375 34.441406zm-39.46875-141.222656 15.429687 91.394531c.035157.222657.054688.445313.054688.667969v14.71875c0 14.578125 10.085937 26.441406 22.484375 26.441406h1.5c12.398437 0 22.484375-11.863281 22.484375-26.441406v-7.828125c0-4.242187-.523438-8.457031-1.558594-12.519531l-20.941406-82.078125c-.65625-2.566407-3.085938-4.359375-5.90625-4.359375h-33.546875zm0 0"/><path d="m381.496094 149.222656h-1.5c-16.808594 0-30.484375-15.449218-30.484375-34.441406v-14.71875c0-2.207031 1.792969-4 4-4h54.035156c2.015625 0 3.71875 1.5 3.96875 3.5.308594 2.449219.464844 4.941406.464844 7.398438v7.820312c0 18.992188-13.671875 34.441406-30.484375 34.441406zm-23.984375-45.160156v10.71875c0 14.578125 10.085937 26.441406 22.484375 26.441406h1.5c12.398437 0 22.484375-11.863281 22.484375-26.441406v-7.820312c0-.960938-.027344-1.929688-.082031-2.898438zm0 0"/><path d="m113.679688 149.222656h-1.09375c-16.921876 0-30.6875-15.554687-30.6875-34.675781v-7.59375c0-2.457031.15625-4.945313.464843-7.394531.253907-1.996094 1.953125-3.496094 3.96875-3.496094h54.035157c2.207031 0 4 1.792969 4 4v14.484375c0 19.121094-13.765626 34.675781-30.6875 34.675781zm-23.699219-45.160156c-.054688.964844-.085938 1.929688-.085938 2.890625v7.59375c0 14.710937 10.179688 26.675781 22.691407 26.675781h1.089843c12.511719 0 22.6875-11.964844 22.6875-26.675781v-10.484375zm0 0"/></g></svg>