<svg id="Capa_1" enable-background="new 0 0 512 512" height="512" viewBox="0 0 512 512" width="512" xmlns="http://www.w3.org/2000/svg"><g fill="#eceaec"><path d="m363.355 33.032h16.516v445.935h-16.516z"/><path d="m297.29 33.032h16.516v445.935h-16.516z"/><path d="m198.194 33.032h16.516v445.935h-16.516z"/><path d="m132.129 33.032h16.516v445.935h-16.516z"/></g><path d="m495.484 90.839h-478.968l-10.183 16.516v288.462c0 9.122 7.395 16.516 16.516 16.516h472.634l16.517-7.688v-297.29c0-9.122-7.395-16.516-16.516-16.516z" fill="#ffc269"/><path d="m470.71 388.129h-429.42c-4.561 0-8.258-3.697-8.258-8.258v-247.742c0-4.561 3.697-8.258 8.258-8.258h429.42c4.561 0 8.258 3.697 8.258 8.258v247.742c0 4.561-3.698 8.258-8.258 8.258z" fill="#95d6a4"/><path d="m429.419 371.613h-346.838c-18.243 0-33.032-14.789-33.032-33.032v-165.162c0-18.243 14.789-33.032 33.032-33.032h346.839c18.243 0 33.032 14.789 33.032 33.032v165.161c0 18.244-14.789 33.033-33.033 33.033z" fill="#b3e59f"/><path d="m132.129 123.871h16.516v264.258h-16.516z" fill="#eceaec"/><path d="m313.806 256c0-29.06-21.585-53.117-49.548-57.147v-74.982h-16.516v74.982c-27.964 4.03-49.548 28.087-49.548 57.147s21.585 53.117 49.548 57.147v74.982h16.516v-74.982c27.964-4.03 49.548-28.087 49.548-57.147zm-99.096 0c0-19.939 14.21-36.618 33.032-40.456v80.911c-18.823-3.837-33.032-20.516-33.032-40.455zm49.548 40.456v-80.911c18.823 3.837 33.032 20.517 33.032 40.456s-14.209 36.617-33.032 40.455z" fill="#fff"/><path d="m90.839 313.806h-57.807v-16.516h49.548v-82.58h-49.548v-16.516h57.806c4.565 0 8.258 3.694 8.258 8.258v99.097c.001 4.564-3.693 8.257-8.257 8.257z" fill="#fff"/><path d="m140.387 57.806s-10.054-7.395-10.054-16.516v-16.516c0-9.122 10.054-16.516 10.054-16.516 9.122 0 16.516 7.395 16.516 16.516v16.516c0 9.122-7.394 16.516-16.516 16.516z" fill="#ffc269"/><circle cx="140.387" cy="181.677" fill="#ff8086" r="16.516"/><circle cx="140.387" cy="330.323" fill="#ff8086" r="16.516"/><circle cx="140.387" cy="256" fill="#ff8086" r="16.516"/><path d="m16.516 379.871v-289.032c-9.121 0-16.516 7.394-16.516 16.516v297.29c0 9.122 7.395 16.516 16.516 16.516h478.968c9.121 0 16.516-7.395 16.516-16.516h-470.71c-13.682 0-24.774-11.092-24.774-24.774z" fill="#ffa95f"/><path d="m421.161 198.194h57.806v16.516h-49.548v82.581h49.548v16.516h-57.806c-4.565 0-8.258-3.694-8.258-8.258v-99.097c0-4.565 3.694-8.258 8.258-8.258z" fill="#fff"/><path d="m123.871 24.774v16.516c0 9.121 7.395 16.516 16.516 16.516v-49.548c-9.121 0-16.516 7.394-16.516 16.516z" fill="#ffa95f"/><path d="m198.194 123.871h16.516v264.258h-16.516z" fill="#eceaec"/><circle cx="206.452" cy="181.677" fill="#8bb3ea" r="16.516"/><circle cx="206.452" cy="330.323" fill="#8bb3ea" r="16.516"/><circle cx="206.452" cy="256" fill="#8bb3ea" r="16.516"/><path d="m363.355 123.871h16.516v264.258h-16.516z" fill="#eceaec"/><circle cx="371.613" cy="181.677" fill="#8bb3ea" r="16.516"/><circle cx="371.613" cy="330.323" fill="#8bb3ea" r="16.516"/><circle cx="371.613" cy="256" fill="#8bb3ea" r="16.516"/><path d="m297.29 123.871h16.516v264.258h-16.516z" fill="#eceaec"/><circle cx="305.548" cy="181.677" fill="#ff8086" r="16.516"/><circle cx="305.548" cy="330.323" fill="#ff8086" r="16.516"/><circle cx="305.548" cy="256" fill="#ff8086" r="16.516"/><path d="m206.452 57.806s-10.054-7.395-10.054-16.516v-16.516c0-9.122 10.054-16.516 10.054-16.516 9.122 0 16.516 7.395 16.516 16.516v16.516c0 9.122-7.395 16.516-16.516 16.516z" fill="#ffc269"/><path d="m189.935 24.774v16.516c0 9.121 7.395 16.516 16.516 16.516v-49.548c-9.121 0-16.516 7.394-16.516 16.516z" fill="#ffa95f"/><path d="m305.419 57.806s-10.054-7.395-10.054-16.516v-16.516c0-9.122 10.054-16.516 10.054-16.516 9.122 0 16.516 7.395 16.516 16.516v16.516c0 9.122-7.394 16.516-16.516 16.516z" fill="#ffc269"/><path d="m288.903 24.774v16.516c0 9.121 7.395 16.516 16.516 16.516v-49.548c-9.121 0-16.516 7.394-16.516 16.516z" fill="#ffa95f"/><path d="m371.484 57.806s-10.054-7.395-10.054-16.516v-16.516c0-9.122 10.054-16.516 10.054-16.516 9.122 0 16.516 7.395 16.516 16.516v16.516c0 9.122-7.395 16.516-16.516 16.516z" fill="#ffc269"/><path d="m354.968 24.774v16.516c0 9.121 7.395 16.516 16.516 16.516v-49.548c-9.122 0-16.516 7.394-16.516 16.516z" fill="#ffa95f"/><path d="m140.387 503.742s-10.054-7.395-10.054-16.516v-16.516c0-9.122 10.054-16.516 10.054-16.516 9.122 0 16.516 7.395 16.516 16.516v16.516c0 9.121-7.394 16.516-16.516 16.516z" fill="#ffc269"/><path d="m123.871 470.71v16.516c0 9.121 7.395 16.516 16.516 16.516v-49.548c-9.121 0-16.516 7.394-16.516 16.516z" fill="#ffa95f"/><path d="m206.452 503.742s-10.054-7.395-10.054-16.516v-16.516c0-9.122 10.054-16.516 10.054-16.516 9.122 0 16.516 7.395 16.516 16.516v16.516c0 9.121-7.395 16.516-16.516 16.516z" fill="#ffc269"/><path d="m189.935 470.71v16.516c0 9.121 7.395 16.516 16.516 16.516v-49.548c-9.121 0-16.516 7.394-16.516 16.516z" fill="#ffa95f"/><path d="m305.419 503.742s-10.054-7.395-10.054-16.516v-16.516c0-9.122 10.054-16.516 10.054-16.516 9.122 0 16.516 7.395 16.516 16.516v16.516c0 9.121-7.394 16.516-16.516 16.516z" fill="#ffc269"/><path d="m288.903 470.71v16.516c0 9.121 7.395 16.516 16.516 16.516v-49.548c-9.121 0-16.516 7.394-16.516 16.516z" fill="#ffa95f"/><path d="m371.484 503.742s-10.054-7.395-10.054-16.516v-16.516c0-9.122 10.054-16.516 10.054-16.516 9.122 0 16.516 7.395 16.516 16.516v16.516c0 9.121-7.395 16.516-16.516 16.516z" fill="#ffc269"/><path d="m354.968 470.71v16.516c0 9.121 7.395 16.516 16.516 16.516v-49.548c-9.122 0-16.516 7.394-16.516 16.516z" fill="#ffa95f"/></svg>