<svg height="511pt" viewBox="0 0 511 511.9991" width="511pt" xmlns="http://www.w3.org/2000/svg"><path d="m458.980469 270.964844c-4.265625 9.5625-10.953125 18.734375-13.109375 28.234375-3.367188 14.796875 2.886718 32.90625-3.554688 46.257812-6.546875 13.570313-24.671875 19.941407-33.980468 31.597657-9.351563 11.710937-11.5625 30.785156-23.273438 40.136718-11.65625 9.308594-30.726562 7.25-44.296875 13.796875-13.351563 6.441407-23.589844 22.695313-38.386719 26.0625-14.332031 3.257813-30.578125-6.875-45.894531-6.875v54.28125c132.199219 0 240.269531-103.242187 248.027344-233.492187zm0 0" fill="#4cb4a4"/><path d="m476.839844 270.964844c-7.210938 121.03125-101.039063 218.722656-220.355469 231.949218v1.542969c132.203125 0 240.273437-103.242187 248.027344-233.492187zm0 0" fill="#41998b"/><path d="m50.273438 255.964844c0-15.316406 13.570312-28.902344 16.828124-43.234375 3.363282-14.796875-2.886718-32.910157 3.554688-46.257813 6.546875-13.570312 24.671875-19.941406 33.976562-31.597656 9.355469-11.714844 11.5625-30.785156 23.277344-40.136719 11.65625-9.308593 30.726563-7.25 44.296875-13.796875 13.351563-6.441406 23.589844-22.695312 38.386719-26.0625 14.328125-3.257812 30.574219 6.875 45.894531 6.875v-54.28125c-137.238281 0-248.492187 111.253906-248.492187 248.492188 0 5.039062.167968 10.035156.460937 15h45.535157c-2.171876-4.867188-3.71875-9.835938-3.71875-15zm0 0" fill="#ffe675"/><path d="m187.59375 54.878906c-14.796875 3.363282-25.035156 19.621094-38.386719 26.0625-13.570312 6.546875-32.640625 4.488282-44.296875 13.792969-11.714844 9.355469-13.921875 28.425781-23.277344 40.140625-9.304687 11.65625-27.429687 18.023438-33.976562 31.59375-6.441406 13.351562-.191406 31.464844-3.554688 46.261719-3.257812 14.332031-16.828124 27.914062-16.828124 43.234375 0 5.164062 1.546874 10.132812 3.71875 15h23c-2.171876-4.867188-3.71875-9.835938-3.71875-15 0-15.320313 13.570312-28.902344 16.828124-43.234375 3.363282-14.796875-2.886718-32.910157 3.550782-46.261719 6.546875-13.570312 24.671875-19.9375 33.980468-31.59375 9.355469-11.714844 11.5625-30.785156 23.277344-40.140625 11.65625-9.304687 30.726563-7.246094 44.296875-13.792969 12.101563-5.839844 21.644531-19.742187 34.34375-24.796875-6.515625-1.628906-12.90625-2.640625-18.957031-1.265625zm0 0" fill="#dec866"/><path d="m302.378906 54.878906c14.796875 3.363282 25.035156 19.621094 38.386719 26.0625 13.570313 6.546875 32.640625 4.488282 44.296875 13.792969 11.714844 9.355469 13.921875 28.425781 23.273438 40.140625 9.308593 11.65625 27.433593 18.023438 33.980468 31.59375 6.441406 13.351562.1875 31.464844 3.554688 46.261719 3.257812 14.332031 16.824218 27.914062 16.824218 43.230469 0 5.167968-1.542968 10.132812-3.714843 15h45.53125c.296875-4.960938.464843-9.960938.464843-15 0-137.238282-111.253906-248.488282-248.492187-248.488282v54.277344c15.320313.003906 31.5625-10.128906 45.894531-6.871094zm0 0" fill="#ff6e88"/><path d="m256.484375 7.472656v1.542969c124.210937 13.765625 220.816406 119.066406 220.816406 246.949219 0 5.039062-.167969 10.035156-.460937 15h27.671875c.296875-4.964844.464843-9.960938.464843-15 0-137.238282-111.253906-248.492188-248.492187-248.492188zm0 0" fill="#e36278"/><path d="m210.59375 457.050781c-14.800781-3.367187-25.035156-19.621093-38.386719-26.0625-13.570312-6.546875-32.640625-4.488281-44.296875-13.796875-11.714844-9.351562-13.921875-28.425781-23.277344-40.136718-9.304687-11.65625-27.429687-18.027344-33.976562-31.597657-6.441406-13.351562-.191406-31.460937-3.554688-46.257812-2.160156-9.5-8.84375-18.667969-13.109374-28.234375h-45.535157c7.757813 130.25 115.828125 233.492187 248.027344 233.492187v-54.28125c-15.316406 0-31.5625 10.128907-45.890625 6.875zm0 0" fill="#4d9ae8"/><path d="m47.65625 345.457031c6.546875 13.570313 24.671875 19.9375 33.980469 31.59375 9.351562 11.714844 11.558593 30.789063 23.273437 40.140625 11.65625 9.308594 30.726563 7.25 44.296875 13.796875 13.351563 6.4375 23.589844 22.695313 38.386719 26.058594 6.046875 1.375 12.441406.363281 18.957031-1.265625-12.699219-5.054688-22.242187-18.957031-34.34375-24.792969-13.570312-6.546875-32.640625-4.488281-44.296875-13.796875-11.714844-9.355468-13.921875-28.425781-23.277344-40.140625-9.304687-11.65625-27.429687-18.023437-33.976562-31.59375-6.441406-13.351562-.191406-31.460937-3.554688-46.257812-2.160156-9.5-8.84375-18.671875-13.109374-28.234375h-23c4.265624 9.5625 10.953124 18.734375 13.109374 28.234375 3.363282 14.796875-2.886718 32.90625 3.554688 46.257812zm0 0" fill="#4181c2"/><path d="m66.136719 427.132812c2.769531 3.109376 7.511719 3.328126 10.589843.558594 3.078126-2.769531 3.332032-7.511718.5625-10.589844-34.550781-38.414062-55.941406-87.363281-60.730468-138.59375h32.722656c10.085938 19.820313 12.171875 18.777344 11.113281 40.722657-.480469 9.941406-.976562 20.21875 3.511719 29.527343 7.667969 15.886719 26.375 22.367188 34.875 33.019532 8.511719 10.65625 10.800781 30.433594 24.457031 41.316406 13.601563 10.863281 33.378907 8.738281 45.71875 14.691406 12.167969 5.871094 22.722657 22.695313 39.980469 26.621094 13.863281 3.148438 27.605469-3.445312 40.058594-5.871094v38.347656c-56.320313-1.746093-110.191406-23.113281-152.425782-60.621093-3.097656-2.75-7.835937-2.46875-10.585937.628906s-2.476563 7.835937.628906 10.585937c46.851563 41.609376 107.183594 64.523438 169.882813 64.523438 140.65625 0 255.992187-114.164062 255.992187-255.992188-.003906-63.648437-23.515625-124.660156-66.214843-171.796874-.085938-.09375-.171876-.183594-.257813-.273438-2.808594-2.808594-7.359375-2.945312-10.335937-.25-3.070313 2.78125-3.304688 7.523438-.523438 10.59375 42.191406 46.582031 64.222656 107.351562 62.207031 169.226562h-27.964843c4.644531-21.886718-12.835938-37.5625-16.207032-52.394531-3.070312-13.519531 3.421875-32.242187-4.109375-47.855469-7.65625-15.875-26.367187-22.367187-34.875-33.015624-8.445312-10.578126-10.84375-30.464844-24.457031-41.320313-13.601562-10.863281-33.375-8.738281-45.71875-14.691406-12.183594-5.878907-22.707031-22.695313-39.980469-26.621094-13.855469-3.148437-27.636719 3.449219-40.054687 5.867187 0-14.898437 0-31.746093 0-38.34375 56.023437 1.738282 109.683594 22.917969 151.820312 60.078126 3.109375 2.742187 7.847656 2.445312 10.585938-.664063 2.742187-3.105469 2.433594-7.855469-.664063-10.582031-100.074219-88.257813-253.484375-85.742188-350.257812 11.03125-97.324219 97.324218-99.335938 252.078125-9.34375 352.136718zm182.855469-412.003906v38.347656c-12.441407-2.421874-26.191407-9.019531-40.054688-5.867187-10.359375 2.355469-18.167969 9.257813-25.722656 15.929687-12.597656 11.132813-14.882813 12.296876-31.863282 15.324219-26.457031 4.71875-33.492187 9.972657-44.199218 35.316407-6.667969 15.785156-8.292969 17.789062-22.089844 27.691406-22.421875 16.097656-25.964844 24.105468-24.667969 50.910156.839844 17.375.195313 19.835938-7.773437 34.453125-4.613282 8.460937-9.839844 18.050781-9.839844 28.773437 0 2.457032.265625 4.933594.808594 7.5h-27.964844c-.082031-2.542968-.125-5.027343-.125-7.5 0-130.375 104.0625-236.90625 233.492188-240.878906zm15 481.753906v-38.34375c12.445312 2.421876 26.191406 9.019532 40.054687 5.867188 10.359375-2.355469 18.171875-9.257812 25.722656-15.929688 12.601563-11.136718 14.894531-12.296874 31.867188-15.324218 26.394531-4.710938 33.46875-9.921875 44.195312-35.316406 6.667969-15.789063 8.296875-17.789063 22.089844-27.691407 22.421875-16.097656 25.964844-24.105469 24.671875-50.910156-1.066406-21.984375 1.007812-20.871094 11.109375-40.726563h32.726563c-11.164063 120.675782-111.140626 214.640626-232.4375 218.375zm14.773437-431.671874c20.8125-5.824219 24.316406-5.234376 41.074219 9.570312 14.671875 12.960938 19.40625 15.324219 39.164062 18.851562 21.589844 3.851563 24.414063 6.027344 33.011719 26.386719 7.738281 18.3125 11.050781 22.476563 27.160156 34.039063 18.003907 12.925781 19.488281 16.160156 18.433594 38-.980469 20.277344.34375 25.402344 9.585937 42.355468 10.636719 19.519532 10.71875 23.515626 0 43.183594-9.257812 16.984375-10.5625 22.117188-9.585937 42.359375 1.054687 21.789063-.390625 25.046875-18.433594 38-16.09375 11.554688-19.414062 15.699219-27.160156 34.042969-8.585937 20.320312-11.382813 22.527344-33.011719 26.386719-19.679687 3.507812-24.449218 5.847656-39.164062 18.847656-16.789063 14.835937-20.304688 15.382813-41.074219 9.570313-7.171875-2.007813-14.589844-4.085938-22.273437-4.085938-16.351563 0-32.539063 9.71875-44.230469 7.058594-12.210938-2.773438-22.402344-18.558594-36.789063-25.5-14.535156-7.011719-33.316406-5.269532-42.875-12.902344-9.613281-7.675781-12.070312-26.40625-22.097656-38.957031-10.003906-12.53125-27.695312-19.007813-33.082031-30.175781-5.28125-10.941407.613281-28.789063-2.996094-44.664063-3.527344-15.523437-16.640625-28.898437-16.640625-41.570313 0-12.671874 13.125-26.105468 16.640625-41.570312 3.601563-15.832031-2.277344-33.738281 2.996094-44.664062 5.390625-11.179688 23.0625-17.621094 33.085937-30.175782 10.054688-12.59375 12.460938-31.265625 22.09375-38.957031 9.585938-7.652344 28.28125-5.859375 42.875-12.902344 14.355469-6.925781 24.589844-22.726562 36.789063-25.5 11.679687-2.65625 27.878906 7.058594 44.273437 7.058594 7.667969-.007813 15.070313-2.082031 22.230469-4.085937zm0 0"/></svg>