<svg id="Layer_1" enable-background="new 0 0 128 128" height="512" viewBox="0 0 128 128" width="512" xmlns="http://www.w3.org/2000/svg"><path d="m115.293 83.399c2.744-1.351 4.98-3.594 6.305-6.358 1.582-3.299 1.784-7.016.569-10.467-1.153-3.276-3.461-5.926-6.513-7.54v-48.477c0-1.73-1.407-3.138-3.138-3.138h-103.467c-1.73 0-3.138 1.408-3.138 3.138v63.085c0 1.73 1.407 3.138 3.138 3.138h46.139v7.362h-4.788c-3.837 0-6.958 3.121-6.958 6.958v.851c0 .552.447 1 1 1h15.676c-.648 2.55-2.957 4.445-5.706 4.445h-28.34c-6.887 0-12.49 5.603-12.49 12.489s5.604 12.49 12.49 12.49h55.856c.408.384.861.727 1.387.979l1.421.681c.772.37 1.596.546 2.409.546 1.95 0 3.85-1.01 4.885-2.781l20.185-34.531zm-99.711 26.486c0-5.784 4.706-10.489 10.49-10.489h28.34c3.857 0 7.071-2.783 7.754-6.445h14.958c.553 0 1-.448 1-1v-.851c0-3.836-3.121-6.958-6.958-6.958h-4.787v-7.362h28.884l-.506 2.147-14.268 37.34c-.521 1.365-.465 2.828.049 4.107h-54.466c-5.784.001-10.49-4.705-10.49-10.489z" fill="#e6e7e8"/><path d="m125.961 97.581c-.248-.613-.813-1.023-1.473-1.072l-3.225-.235-1.635-2.789c-.333-.57-.942-.896-1.609-.85-.66.047-1.225.457-1.475 1.069l-1.221 2.995-3.158.692c-.646.142-1.146.628-1.305 1.271-.158.642.057 1.306.562 1.731l2.471 2.085-.316 3.218c-.065.658.242 1.284.804 1.634.281.175.597.262.912.262.314 0 .629-.087.909-.261l2.747-1.705 2.963 1.296c.608.264 1.297.165 1.802-.262.505-.426.721-1.089.563-1.731l-.772-3.139 2.147-2.417c.439-.492.558-1.179.309-1.792z" fill="#e6e7e8"/><path d="m76.616 104.327.752-3.34c.148-.659-.085-1.333-.609-1.76-.521-.426-1.227-.518-1.837-.24l-3.097 1.405-2.937-1.778c-.579-.35-1.293-.341-1.86.024-.567.366-.87 1.011-.791 1.683l.401 3.408-2.563 2.236c-.506.441-.714 1.12-.544 1.771.172.654.688 1.146 1.35 1.285l3.352.7 1.353 3.168c.268.625.854 1.035 1.53 1.072.032.001.064.002.097.002.634 0 1.212-.336 1.524-.895l1.665-2.97 3.393-.284h.001c.67-.057 1.239-.48 1.484-1.107.247-.631.115-1.334-.343-1.835z" fill="#e6e7e8"/><path d="m52.187 71.781h9.191v9.362h-9.191z" fill="#6dc9f7"/><path d="m67.166 81.142h-20.766c-3.29 0-5.957 2.667-5.957 5.957v.851h32.681v-.85c-.001-3.29-2.668-5.958-5.958-5.958z" fill="#0089ef"/><path d="m108.517 4.419h-103.468c-1.181 0-2.138.957-2.138 2.138v63.085c0 1.181.957 2.138 2.138 2.138h87.478l.389-1.65h.001c-.674-2.752-.437-5.744.884-8.499 3.018-6.296 10.548-8.964 16.855-5.995v-49.079c-.001-1.181-.958-2.138-2.139-2.138z" fill="#fff"/><path d="m108.517 7.419h-103.468c-1.181 0-2.138.957-2.138 2.138v60.085c0 1.181.957 2.138 2.138 2.138h87.478l.389-1.649h.001c-.674-2.752-.437-5.744.884-8.499 3.018-6.296 10.548-8.965 16.855-5.995v-46.08c-.001-1.181-.958-2.138-2.139-2.138z" fill="#6dc9f7"/><path d="m102.719 54.694v-43.126h-91.915v48.851h83.666c1.888-3.046 4.915-5.044 8.249-5.725z" fill="#d4fbff"/><ellipse cx="44.545" cy="35.084" fill="#fa759e" rx="5.913" ry="5.222"/><ellipse cx="59.725" cy="35.084" fill="#fa759e" rx="5.913" ry="5.222"/><path d="m50.458 18.245h15.18v5.833h-15.18z" fill="#fa759e"/><circle cx="57.102" cy="65.504" fill="#fff" r="2"/><path d="m110.626 78.62c2.567-1.198 4.752-3.258 6.072-6.012 3.031-6.323.362-13.905-5.961-16.936s-13.905-.362-16.936 5.961c-1.32 2.754-1.557 5.747-.884 8.499z" fill="#fa759e"/><path d="m87.167 117.295 20.221-34.591-.003.004-15.661-7.508-14.3 37.424c-.86 2.251.15 4.786 2.324 5.827l1.421.681c2.173 1.043 4.782.243 5.998-1.837z" fill="#6dc9f7"/><path d="m96.875 84.544c-.869-.417-1.912-.05-2.328.819l-2.641 5.509c-.417.869-.05 1.912.819 2.328.869.417 1.912.05 2.328-.819l2.64-5.509c.418-.869.051-1.911-.818-2.328z" fill="#0089ef"/><path d="m92.916 70.131-1.195 5.068 15.664 7.509 3.247-4.085z" fill="#ffd7e5"/><path d="m118.313 102.007-3.095-1.354c-.218-.096-.47-.078-.672.048l-2.871 1.782c-.51.317-1.161-.089-1.103-.686l.332-3.362c.023-.237-.071-.471-.254-.624l-2.582-2.179c-.459-.387-.274-1.132.312-1.261l3.3-.724c.233-.051.426-.213.515-.434l1.275-3.129c.226-.556.992-.611 1.295-.093l1.708 2.915c.12.206.334.339.572.356l3.37.246c.599.044.887.755.489 1.203l-2.245 2.525c-.158.178-.219.423-.162.654l.808 3.281c.144.582-.443 1.076-.992.836z" fill="#ffd7e5"/><path d="m73.712 104.817-3.525.295c-.249.021-.47.163-.592.381l-1.73 3.086c-.307.548-1.11.499-1.359-.084l-1.399-3.278c-.099-.231-.304-.4-.549-.451l-3.472-.725c-.617-.129-.825-.911-.353-1.323l2.66-2.321c.188-.164.282-.41.253-.66l-.416-3.534c-.074-.628.6-1.062 1.141-.734l3.044 1.844c.215.13.478.146.705.043l3.215-1.459c.571-.259 1.196.255 1.058.869l-.779 3.461c-.055.244.013.501.183.687l2.403 2.632c.426.468.138 1.219-.488 1.271z" fill="#ffd7e5"/><g fill="#3a2c60"><path d="m44.545 41.306c3.812 0 6.913-2.791 6.913-6.222v-10.005h13.18v5.635c-1.254-1.142-2.993-1.851-4.913-1.851-3.812 0-6.913 2.791-6.913 6.222s3.102 6.222 6.913 6.222 6.913-2.791 6.913-6.222v-11.006-4.2-1.633c0-.552-.447-1-1-1h-15.18c-.553 0-1 .448-1 1v1.633 4.2 6.635c-1.254-1.142-2.993-1.851-4.913-1.851-3.812 0-6.913 2.791-6.913 6.222s3.101 6.221 6.913 6.221zm15.179-2c-2.709 0-4.913-1.894-4.913-4.222s2.204-4.222 4.913-4.222 4.913 1.894 4.913 4.222-2.204 4.222-4.913 4.222zm-8.266-20.06h13.18v.633 3.2h-13.18v-3.2zm-6.913 11.616c2.709 0 4.913 1.894 4.913 4.222s-2.204 4.222-4.913 4.222-4.913-1.894-4.913-4.222 2.204-4.222 4.913-4.222z"/><path d="m18.102 46.781h69.702c.553 0 1-.448 1-1s-.447-1-1-1h-69.702c-.553 0-1 .448-1 1s.448 1 1 1z"/><path d="m72.974 54.206c0-.552-.447-1-1-1h-53.872c-.553 0-1 .448-1 1s.447 1 1 1h53.872c.553 0 1-.448 1-1z"/><path d="m100.733 94.088c-.479-.279-1.09-.118-1.368.359l-2.797 4.785c-.278.477-.118 1.089.358 1.368.159.093.333.137.504.137.344 0 .679-.177.864-.496l2.797-4.785c.279-.477.119-1.089-.358-1.368z"/><path d="m111.293 79.399c2.745-1.351 4.981-3.594 6.305-6.358 1.582-3.299 1.784-7.016.569-10.467-1.153-3.276-3.461-5.926-6.513-7.54v-48.477c0-1.73-1.407-3.138-3.138-3.138h-103.467c-1.73 0-3.138 1.408-3.138 3.138v63.085c0 1.73 1.407 3.138 3.138 3.138h46.139v7.362h-4.788c-3.837 0-6.958 3.121-6.958 6.957v.851c0 .552.447 1 1 1h15.668c-.648 2.55-2.949 4.445-5.698 4.445h-28.34c-6.887 0-12.49 5.603-12.49 12.489s5.604 12.489 12.49 12.489h55.855c.408.384.861.727 1.388.979l1.421.681c.772.37 1.596.546 2.409.546 1.95 0 3.85-1.01 4.885-2.781l8.655-14.806c.278-.477.118-1.089-.358-1.368-.479-.279-1.091-.117-1.368.358l-8.655 14.807c-.946 1.618-3.015 2.251-4.702 1.441l-1.421-.681c-1.69-.81-2.491-2.817-1.822-4.569l13.911-36.408 13.703 6.568-4.985 8.529c-.278.477-.118 1.089.358 1.368.48.28 1.091.118 1.368-.358l5.501-9.41zm-18.414-4.754.725-3.075 15.465 7.413-1.971 2.478-8.004-3.836zm23.402-11.407c1.037 2.947.865 6.121-.485 8.938-1.099 2.29-2.926 4.169-5.175 5.332l-16.834-8.068c-.503-2.483-.182-5.084.915-7.374 2.788-5.814 9.789-8.279 15.602-5.491 2.817 1.349 4.94 3.716 5.977 6.663zm-112.37 6.405v-63.086c0-.627.511-1.138 1.138-1.138h103.469c.627 0 1.138.511 1.138 1.138v47.606c-6.469-2.203-13.73.725-16.756 7.039-1.327 2.766-1.674 5.918-1.006 8.908l-.158.672h-30.357-9.191-47.139c-.627-.001-1.138-.512-1.138-1.139zm49.276 3.138h7.191v7.362h-7.191zm-6.787 9.362h20.766c2.684 0 4.877 2.144 4.956 4.808h-30.678c.079-2.665 2.273-4.808 4.956-4.808zm30.089 30.125c-.521 1.364-.465 2.828.049 4.106h-54.466c-5.784 0-10.49-4.706-10.49-10.489s4.706-10.489 10.49-10.489h28.34c3.856 0 7.059-2.784 7.742-6.445h14.97c.553 0 1-.448 1-1v-.851c0-3.836-3.121-6.957-6.958-6.957h-4.787v-7.362h28.884l-.506 2.147z"/><path d="m121.961 93.581c-.248-.613-.813-1.024-1.473-1.072l-3.225-.235-1.635-2.789c-.333-.571-.942-.898-1.609-.85-.66.047-1.225.457-1.475 1.069l-1.221 2.995-3.159.692c-.646.142-1.146.629-1.304 1.271s.058 1.305.562 1.73l2.471 2.085-.316 3.218c-.065.658.242 1.284.804 1.634.281.175.597.262.912.262.314 0 .629-.087.909-.261l2.746-1.706 2.964 1.296c.608.265 1.297.165 1.802-.262.505-.426.721-1.089.563-1.731l-.772-3.14 2.147-2.417c.439-.489.558-1.177.309-1.789zm-4.049 2.99c-.376.424-.521 1.005-.385 1.558l.674 2.738-2.582-1.13c-.522-.229-1.119-.186-1.602.114l-2.396 1.487.276-2.806c.056-.564-.169-1.12-.603-1.487l-2.155-1.819 2.754-.604c.554-.121 1.013-.508 1.227-1.034l1.064-2.611 1.426 2.432c.286.491.796.808 1.362.849l2.812.205z"/><path d="m72.616 100.327.752-3.34c.148-.659-.085-1.333-.609-1.76-.521-.426-1.227-.518-1.837-.24l-3.098 1.405-2.936-1.778c-.579-.35-1.293-.341-1.86.024-.567.366-.87 1.011-.791 1.683l.401 3.408-2.564 2.237c-.505.441-.712 1.12-.541 1.771.171.654.688 1.146 1.349 1.283l3.352.701 1.353 3.168c.268.625.854 1.035 1.53 1.072.032.001.064.002.097.002.634 0 1.212-.336 1.524-.895l1.665-2.97 3.393-.284h.001c.67-.057 1.239-.48 1.484-1.107.247-.631.115-1.334-.343-1.835zm-2.513 3.789c-.58.049-1.097.381-1.381.889l-1.487 2.653-1.209-2.832c-.227-.532-.699-.92-1.265-1.038l-3.013-.629 2.302-2.008c.437-.38.656-.953.589-1.53l-.357-3.036 2.615 1.584c.498.3 1.109.338 1.636.098l2.78-1.261-.676 3.003c-.126.563.031 1.154.421 1.58l2.075 2.274z"/></g></svg>