<svg id="Capa_1" enable-background="new 0 0 512 512" height="512" viewBox="0 0 512 512" width="512" xmlns="http://www.w3.org/2000/svg"><g><g fill="#447d99"><path d="m94.25 436h-30c-11.046 0-20-8.954-20-20v-10h70v10c0 11.046-8.954 20-20 20z"/><path d="m447.75 436h-30c-11.046 0-20-8.954-20-20v-10h70v10c0 11.046-8.954 20-20 20z"/></g><path d="m489.5 406h-467c-8.284 0-15-6.716-15-15v-300c0-8.284 6.716-15 15-15h467c8.284 0 15 6.716 15 15v300c0 8.285-6.716 15-15 15z" fill="#548eb5"/><path d="m92.5 406h-70c-8.28 0-15-6.72-15-15v-300c0-8.28 6.72-15 15-15h70c-8.28 0-15 6.72-15 15v300c0 8.28 6.72 15 15 15z" fill="#447d99"/><path d="m62.5 101h250v280h-250z" fill="#c9ebfa" transform="matrix(0 1 -1 0 428.5 53.5)"/><path d="m47.5 116h30v250h-30z" fill="#a0ddf3"/><path d="m47.5 319.84h280v46.16h-280z" fill="#3dc6ef"/><path d="m47.5 319.84h30v46.16h-30z" fill="#08a9f1"/><path d="m411 116h50v90h-50z" fill="#01d0fb"/><circle cx="436" cy="266" fill="#c9ebfa" r="25"/><path d="m229.461 319.84h-83.922c-14.665 0-27.181-10.602-29.592-25.068l-5.822-34.932h154.75l-5.822 34.932c-2.411 14.465-14.927 25.068-29.592 25.068z" fill="#f37c7b"/><g><path d="m489.5 68.5h-367.16c-4.143 0-7.5 3.357-7.5 7.5s3.357 7.5 7.5 7.5h237.66v50.6c0 4.143 3.357 7.5 7.5 7.5s7.5-3.357 7.5-7.5v-50.6h114.5c4.136 0 7.5 3.364 7.5 7.5v300c0 4.136-3.364 7.5-7.5 7.5h-114.5v-231.71c0-4.143-3.357-7.5-7.5-7.5s-7.5 3.357-7.5 7.5v231.71h-337.5c-4.136 0-7.5-3.364-7.5-7.5v-300c0-4.136 3.364-7.5 7.5-7.5h67.16c4.143 0 7.5-3.357 7.5-7.5s-3.357-7.5-7.5-7.5h-67.16c-12.406 0-22.5 10.094-22.5 22.5v300c0 12.406 10.094 22.5 22.5 22.5h14.25v2.5c0 15.163 12.337 27.5 27.5 27.5h30c15.163 0 27.5-12.337 27.5-27.5v-2.5h268.5v2.5c0 15.163 12.337 27.5 27.5 27.5h30c15.163 0 27.5-12.337 27.5-27.5v-2.5h14.25c12.406 0 22.5-10.094 22.5-22.5v-300c0-12.406-10.094-22.5-22.5-22.5zm-382.75 347.5c0 6.893-5.607 12.5-12.5 12.5h-30c-6.893 0-12.5-5.607-12.5-12.5v-2.5h55zm353.5 0c0 6.893-5.607 12.5-12.5 12.5h-30c-6.893 0-12.5-5.607-12.5-12.5v-2.5h55z"/><path d="m40 116v250c0 4.143 3.357 7.5 7.5 7.5h280c4.143 0 7.5-3.357 7.5-7.5v-250c0-4.143-3.357-7.5-7.5-7.5h-280c-4.143 0-7.5 3.357-7.5 7.5zm15 242.5v-31.16h265v31.16zm265-235v188.84h-60.509c3.492-4.673 5.937-10.22 6.956-16.336l5.83-34.93c.233-5.197-2.232-8.109-7.397-8.734h-61.04c-4.143 0-7.5 3.357-7.5 7.5s3.357 7.5 7.5 7.5h52.185l-4.373 26.197c-1.814 10.896-11.147 18.803-22.191 18.803h-83.92c-11.044 0-20.377-7.907-22.192-18.805l-4.372-26.195h52.185c4.143 0 7.5-3.357 7.5-7.5s-3.357-7.5-7.5-7.5h-61.04c-5.165.626-7.631 3.537-7.397 8.734l5.829 34.928c1.019 6.117 3.464 11.665 6.957 16.338h-60.511v-188.84z"/><path d="m461 213.5c4.143 0 7.5-3.357 7.5-7.5v-90c0-4.143-3.357-7.5-7.5-7.5h-50c-4.143 0-7.5 3.357-7.5 7.5v90c0 4.143 3.357 7.5 7.5 7.5zm-42.5-90h35v75h-35z"/><path d="m436 298.5c17.921 0 32.5-14.579 32.5-32.5s-14.579-32.5-32.5-32.5-32.5 14.579-32.5 32.5 14.579 32.5 32.5 32.5zm0-50c9.649 0 17.5 7.851 17.5 17.5s-7.851 17.5-17.5 17.5-17.5-7.851-17.5-17.5 7.851-17.5 17.5-17.5z"/><path d="m411 337.34h50c4.143 0 7.5-3.357 7.5-7.5s-3.357-7.5-7.5-7.5h-50c-4.143 0-7.5 3.357-7.5 7.5s3.357 7.5 7.5 7.5z"/><path d="m411 373.5h50c4.143 0 7.5-3.357 7.5-7.5s-3.357-7.5-7.5-7.5h-50c-4.143 0-7.5 3.357-7.5 7.5s3.357 7.5 7.5 7.5z"/><path d="m205.602 193.609c9.636 8.346 9.06 10.877.297 18.605-3.106 2.739-3.404 7.479-.664 10.586 3.438 3.147 6.966 3.369 10.586.664 15.459-13.633 14.811-28.019-.398-41.194-9.778-8.467-8.782-10.992.298-18.719 3.154-2.685 3.536-7.418.852-10.572-2.683-3.154-7.417-3.536-10.572-.852-15.899 13.528-15.958 28.007-.399 41.482z"/><path d="m159.501 193.609c9.636 8.346 9.059 10.878.297 18.605-3.106 2.74-3.404 7.479-.664 10.586 3.438 3.147 6.966 3.369 10.586.664 15.457-13.633 14.813-28.019-.398-41.193-9.777-8.469-8.784-10.992.298-18.72 3.154-2.685 3.536-7.418.852-10.572-2.683-3.154-7.417-3.536-10.572-.852-15.897 13.527-15.959 28.008-.399 41.482z"/></g></g></svg>