<svg id="Capa_1" enable-background="new 0 0 512 512" height="512" viewBox="0 0 512 512" width="512" xmlns="http://www.w3.org/2000/svg"><g><g><g><g><path d="m49.377 509.453 1.039-.446 13.682-14.487 18.067.848 204.608-87.9 22.018-13.892 20.833-4.517 71.881-30.88-242.041-242.044-20.918 48.691-1.942 27.143-16.285 15.286-42.894 99.846-5.9 19.759-13.492 25.38-49.844 116.024c-5.065 11.79-2.435 25.477 6.638 34.551 9.074 9.073 22.76 11.703 34.55 6.638z" fill="#fe255f"/><g fill="#e01152"><path d="m40.97 468.094c-10.716-.17-21.251-1.07-31.56-2.674l-1.22 2.84c-5.07 11.79-2.44 25.48 6.64 34.55 6 6.01 14.02 9.19 22.18 9.19 4.17 0 8.38-.83 12.37-2.55l.77-.331c-5.714-14.419-8.777-28.137-9.18-41.025z"/><path d="m304.391 312.74 34.79-3.79c.21 1.88 3.63 35.33-9.25 79.98l71.58-30.75-128.23-128.23c.13 3.12.19 6.25.19 9.4 0 22.763-3.341 44.742-9.531 65.493-1.407 10.062-3.034 20.161-4.929 30.207-6.71 35.63-19.15 57.68-39.13 69.41-8.451 4.96-17.427 7.535-26.612 8.846-32.499 27.784-72.873 46.614-117.313 52.688.172 9.714 2.802 19.88 6.414 29.284l203.502-87.422c22.698-51.328 18.569-94.646 18.519-95.116z"/></g><g><path d="m270.901 227.58c-1.53 33.6-4.99 70.89-11.89 107.47-6.71 35.63-19.15 57.68-39.13 69.41-18.01 10.57-38.4 10.31-58.13 10.06-22.56-.3-43.87-.56-64.73 13.11-11.7 7.67-18.37 17.17-20.4 29.05-2.11 12.32.96 26.13 5.75 38.6l-32.22 13.84c-8.33-21.02-11.03-40.55-8.06-58.19 3.68-21.75 15.7-39.44 35.74-52.57 29.8-19.54 60.05-19.15 84.37-18.84 16.3.21 30.37.39 39.97-5.24 3.84-2.26 15.55-9.13 22.45-45.71 8.8-46.68 11.67-95.43 12.15-135.12z" fill="#e8e4d8"/></g><g><path d="m179.381 324.86c-4.7 6.74-16.05 17.49-39.2 13.72-27.44-4.47-53.37-.8-77.06 10.9-1.76.87-3.44 1.75-5.04 2.64l19.44-45.25c19.15-5.01 42.03-7.11 68.29-2.83 2.72.44 4.3.36 5.08.25 1.06-3 4.24-18.77-17.73-70.39-4.11-9.65-8.44-19-12.52-27.4l17.97-41.83c6.37 11.91 17.19 32.99 26.96 56.01 29.31 69.06 21.92 92.53 13.81 104.18z" fill="#e8e4d8"/></g><g><path d="m185.926 287.557c-1.107-9.346-3.646-20.794-8.253-34.938-3.501-10.75-16.189-15.371-25.732-9.309-.1.064-.201.128-.301.191-6.703 4.26-9.649 12.521-7.173 20.067 4.122 12.561 6.013 21.522 6.77 27.812.512 4.254 2.573 8.165 5.804 10.979.104.091.209.182.313.273 11.948 10.406 30.435.658 28.572-15.075z" fill="#f9f8f2"/></g><g><path d="m329.93 388.93-44.06 18.93c22.7-51.33 18.57-94.65 18.52-95.12l34.79-3.79c.211 1.88 3.631 35.33-9.25 79.98z" fill="#d8d4c9"/></g><path d="m401.506 358.178s-39.752 30.015-155.905-86.138-86.138-155.905-86.138-155.905 39.752-30.015 155.905 86.138 86.138 155.905 86.138 155.905z" fill="#04a550"/><path d="m401.511 358.18s-39.76 30.01-155.91-86.14c-101-101-91.48-144.23-87.28-153.79 14.46 33.58 40.47 71.22 75.38 106.13 57.53 57.53 122.48 90.89 164.43 88.25 13.13 32.63 3.38 45.55 3.38 45.55z" fill="#00893e"/></g><g><g><path d="m338.424 240.863c-18.971 11.725-37.832 21.687-48.631 27.187-5.003 2.548-11.122.476-13.557-4.582l-4.349-9.031c-2.361-4.904-.373-10.792 4.475-13.266 9.85-5.026 26.692-13.918 43.621-24.235 37.73-23.007 47.372-35.626 49.759-39.956-1.282-.668-3.468-1.579-7.027-2.486-20.674-5.271-26.102-16.746-27.015-25.443-1.581-15.068 6.895-36.66 82.014-82.34 27.937-17.005 55.74-31.655 69.628-38.777 4.973-2.55 11.064-.532 13.539 4.478l4.439 8.985c2.422 4.902.47 10.839-4.393 13.337-12.923 6.639-38.297 20.009-63.8 35.341-53.583 32.213-67.088 48.51-70.458 54.23.857.332 1.991.707 3.467 1.083 23.327 5.948 29.328 18.248 30.253 27.519 1.295 12.973-4.534 32.394-61.587 67.724-.126.076-.253.154-.378.232z" fill="#ff993a"/></g><path d="m372.553 217.064c-8.526 6.964-19.551 14.779-33.753 23.569l-.375.232c-18.971 11.725-37.831 21.687-48.63 27.186-5.003 2.547-11.122.476-13.557-4.583l-4.35-9.034c-2.362-4.904-.372-10.793 4.477-13.266 9.851-5.024 26.694-13.915 43.622-24.232 37.724-23.009 47.373-35.623 49.756-39.957 0 0 31.733 5.388 2.81 40.085z" fill="#f97c15"/><path d="m500.88 32.412 4.439 8.987c2.421 4.902.469 10.839-4.394 13.337-12.924 6.638-38.296 20.006-63.796 35.336-53.588 32.214-67.09 48.516-70.454 54.232 0 0-.967-.336-2.022-.806-10.519-4.685-20.457-20.86.397-40.447.009-.005.02-.025.037-.035 12.185-10.109 29.149-22.029 52.626-36.304 27.938-17.004 55.739-31.655 69.627-38.778 4.972-2.551 11.065-.533 13.54 4.478z" fill="#ffaf40"/><path d="m449.857 64.889c-4.207-7.022-13.252-9.398-20.31-5.251-3.916 2.301-7.874 4.664-11.835 7.075-10.802 6.568-20.221 12.636-28.431 18.259-6.151 4.212-8.25 12.302-4.908 18.966.047.094.095.189.142.283 4.04 8.056 14.257 10.675 21.692 5.58 8.437-5.781 18.623-12.335 30.921-19.728 2.54-1.527 5.078-3.034 7.603-4.517 7.107-4.174 9.52-13.34 5.279-20.408-.05-.087-.102-.173-.153-.259z" fill="#ffc751"/><path d="m372.553 217.064c-5.364 4.386-11.723 9.105-19.231 14.193 7.532-13.201 10.291-28.772 7.616-43.88 5.406-5.119 7.782-8.53 8.805-10.398 0 0 31.733 5.388 2.81 40.085z" fill="#e86300"/><path d="m500.877 32.416 4.443 8.978c2.421 4.907.466 10.848-4.394 13.345-7.417 3.807-18.945 9.838-32.233 17.191 11.026-11.452 16.578-26.961 15.687-42.477 1.044-.539 2.028-1.042 2.956-1.521 4.98-2.549 11.065-.531 13.541 4.484z" fill="#ff993a"/></g><g><path d="m467.085 297.637c-13.778 4.616-40.873 14.028-68.378 25.362-25.853 10.644-43.306 19.345-55.071 26.174-8.07-4.095-17.102-9.442-27.155-16.361 2.293-2.603 5.257-5.217 9.012-7.8.01 0 .03-.02.04-.03 13.568-8.16 32.131-17.402 57.484-27.996 30.169-12.616 59.857-22.929 74.656-27.886 5.297-1.782 11.014 1.131 12.716 6.458l3.034 9.552c1.663 5.208-1.161 10.785-6.338 12.527z" fill="#e01152"/></g><g><path d="m441.803 289.38c-3.148-7.243-11.377-10.807-18.786-8.072-12.29 4.537-26.092 9.862-39.999 15.678-8.004 3.345-15.332 6.555-22.039 9.638-7.935 3.648-11.054 13.297-6.728 20.883.051.089.101.177.152.266 3.816 6.692 12.113 9.383 19.11 6.161 7.355-3.385 15.705-7.029 25.195-10.935 12.001-4.945 23.923-9.525 34.695-13.499 8.006-2.954 11.927-12.021 8.521-19.845-.041-.091-.081-.183-.121-.275z" fill="#fe255f"/></g><g><g><path d="m258.847 62.705c-25.042 36.407-28.687 51.867-29.097 56.793 1.442.09 3.815.03 7.43-.601 21.027-3.635 30.669 4.626 35.055 12.196 7.6 13.107 8.681 36.277-41.233 108.65-2.303 3.334-4.606 6.638-6.909 9.883-7.55-8.221-14.288-16.001-20.296-23.35l-.01-.01c35.716-51.226 41.373-71.592 42.114-78.191-.911.04-2.103.16-3.605.42-23.721 4.105-34.224-4.676-38.85-12.756-6.488-11.315-9.102-31.42 28.547-86.972.09-.12.17-.25.25-.371 12.526-18.454 25.673-35.245 33.293-44.677 3.525-4.366 9.953-4.977 14.238-1.352l7.66 6.468c4.165 3.505 4.746 9.693 1.332 13.928-6.939 8.611-18.674 23.611-29.919 39.942z" fill="#73e1ff"/></g><path d="m210.819 84.06c4.938-9.839 11.81-21.476 21.183-35.299l.247-.364c12.528-18.451 25.673-35.248 33.284-44.678 3.526-4.369 9.958-4.977 14.247-1.354l7.661 6.47c4.159 3.512 4.748 9.7 1.332 13.938-6.94 8.61-18.683 23.604-29.92 39.936-25.036 36.411-28.691 51.865-29.096 56.794 0-.001-31.167 8.042-18.938-35.443z" fill="#b6f0ff"/><path d="m261.135 33.826c-6.668-4.984-16.141-3.532-20.983 3.24-2.623 3.668-5.275 7.461-7.902 11.331l-.247.364c-.846 1.247-1.67 2.475-2.473 3.685-4.465 6.726-2.76 15.799 3.867 20.409.082.057.165.115.247.172 6.872 4.776 16.304 2.981 20.932-3.991 1.351-2.035 2.775-4.143 4.278-6.328 1.894-2.753 3.801-5.466 5.697-8.116 4.715-6.59 3.316-15.734-3.174-20.585-.081-.061-.161-.121-.242-.181z" fill="#dcfeff"/><path d="m264.234 185.062c-.01.01-.01.03-.02.05-6.999 14.208-17.613 32.011-33.213 54.63-2.303 3.334-4.606 6.638-6.909 9.883-7.55-8.221-14.288-16.001-20.296-23.35 35.706-51.236 41.363-71.612 42.104-78.201 0 0 1.021-.09 2.173-.09 11.515-.019 27.196 10.684 16.161 37.078z" fill="#5cceff"/><path d="m249.495 211.466c-5.197 8.481-11.315 17.873-18.494 28.276-2.303 3.344-4.606 6.638-6.909 9.883-7.55-8.221-14.288-16.001-20.296-23.35 8.181-11.745 14.779-21.858 20.106-30.559 4.706-7.69 15.109-9.472 22.078-3.765.09.06.17.13.25.2 5.769 4.716 7.16 12.957 3.265 19.315z" fill="#27b2ff"/><path d="m208.948 218.789c-1.642 2.418-3.358 4.912-5.151 7.487 6.008 7.349 12.746 15.129 20.296 23.35 2.303-3.244 4.606-6.538 6.909-9.883.94-1.363 1.862-2.708 2.766-4.035 4.103-6.028 3.229-14.133-2.058-19.155-.074-.07-.148-.14-.222-.211-6.655-6.321-17.383-5.146-22.54 2.447z" fill="#008cff"/></g><g><path d="m410.35 318.301c.725-.287 1.449-.572 2.171-.855 8.056-3.164 11.683-12.515 7.932-20.314-.044-.091-.087-.181-.131-.272-3.374-7.004-11.594-10.199-18.83-7.356-.731.287-1.464.576-2.2.867-8.558 3.386-12.04 13.636-7.287 21.517l.158.262c3.748 6.213 11.439 8.82 18.187 6.151z" fill="#fc709b"/></g><g><g><g><g><g><path d="m178.975 117.842c1.227-.809 1.227-2.604 0-3.413-3.168-2.087-6.176-4.515-8.968-7.287s-5.24-5.756-7.343-8.9c-.815-1.218-2.624-1.218-3.439 0-2.103 3.144-4.55 6.129-7.343 8.9-2.793 2.772-5.8 5.2-8.968 7.287-1.227.809-1.227 2.604 0 3.413 3.168 2.087 6.176 4.515 8.968 7.287 2.793 2.772 5.24 5.756 7.343 8.9.815 1.218 2.624 1.218 3.439 0 2.103-3.144 4.55-6.129 7.343-8.9s5.799-5.2 8.968-7.287z" fill="#ffe059"/></g></g><g><g><path d="m178.975 117.841c-3.168 2.087-6.175 4.515-8.969 7.287-2.794 2.773-5.24 5.757-7.343 8.9-.815 1.216-2.623 1.216-3.438 0-2.103-3.144-4.549-6.128-7.343-8.9-.363-.361-.732-.716-1.106-1.067.493.041.992.062 1.496.062 9.587 0 17.402-7.555 17.724-16.992l.01.01c2.794 2.773 5.801 5.2 8.969 7.287 1.226.81 1.226 2.603 0 3.413z" fill="#ffc751"/></g></g></g></g></g><g><g><g><g><g><path d="m324.426 184.248c1.227-.809 1.227-2.604 0-3.413-3.168-2.087-6.176-4.515-8.968-7.287-2.793-2.772-5.24-5.756-7.343-8.9-.815-1.218-2.624-1.218-3.439 0-2.103 3.144-4.55 6.129-7.343 8.9s-5.8 5.2-8.968 7.287c-1.227.809-1.227 2.604 0 3.413 3.168 2.087 6.176 4.515 8.968 7.287 2.793 2.772 5.24 5.756 7.343 8.9.815 1.218 2.624 1.218 3.439 0 2.103-3.144 4.55-6.129 7.343-8.9 2.792-2.772 5.799-5.2 8.968-7.287z" fill="#ffe059"/></g></g><g><g><path d="m324.426 184.247c-3.168 2.087-6.175 4.515-8.969 7.287-2.794 2.773-5.24 5.757-7.343 8.9-.815 1.216-2.623 1.216-3.438 0-2.103-3.144-4.549-6.128-7.343-8.9-.363-.361-.732-.716-1.106-1.067.493.041.992.062 1.496.062 9.587 0 17.402-7.555 17.724-16.992l.01.01c2.794 2.773 5.801 5.2 8.969 7.287 1.226.81 1.226 2.603 0 3.413z" fill="#ffc751"/></g></g></g></g></g><g><g><g><g><g><path d="m350.36 72.826c1.72-1.133 1.72-3.649 0-4.782-4.439-2.924-8.653-6.327-12.566-10.21s-7.342-8.065-10.289-12.471c-1.142-1.707-3.677-1.707-4.819 0-2.947 4.406-6.375 8.587-10.289 12.471-3.913 3.883-8.127 7.286-12.566 10.21-1.72 1.133-1.72 3.649 0 4.782 4.439 2.924 8.653 6.327 12.566 10.21s7.342 8.065 10.289 12.471c1.142 1.707 3.677 1.707 4.819 0 2.947-4.406 6.375-8.587 10.289-12.471 3.913-3.883 8.127-7.286 12.566-10.21z" fill="#fe255f"/></g></g><g><g><path d="m350.361 72.824c-4.439 2.925-8.652 6.326-12.567 10.211s-7.342 8.066-10.289 12.471c-1.142 1.704-3.675 1.704-4.817 0-2.947-4.405-6.374-8.586-10.289-12.471-.509-.506-1.026-1.004-1.55-1.495.691.058 1.39.087 2.096.087 13.433 0 24.384-10.586 24.835-23.809.007.007.007.007.015.014 3.915 3.885 8.128 7.286 12.567 10.211 1.716 1.134 1.716 3.647-.001 4.781z" fill="#e01152"/></g></g></g></g></g><g><g><g><g><g><path d="m425.259 365.356c1.53-1.008 1.53-3.245 0-4.253-3.948-2.601-7.695-5.627-11.175-9.08s-6.529-7.172-9.15-11.09c-1.015-1.518-3.27-1.518-4.286 0-2.621 3.918-5.67 7.637-9.15 11.09s-7.227 6.479-11.175 9.08c-1.53 1.008-1.53 3.245 0 4.253 3.948 2.601 7.695 5.627 11.175 9.08 3.48 3.454 6.529 7.172 9.15 11.09 1.015 1.518 3.27 1.518 4.286 0 2.621-3.918 5.67-7.637 9.15-11.09 3.48-3.454 7.227-6.48 11.175-9.08z" fill="#5cceff"/></g></g><g><g><path d="m425.26 365.354c-3.947 2.601-7.694 5.626-11.176 9.081s-6.529 7.173-9.15 11.091c-1.016 1.516-3.268 1.516-4.284 0-2.621-3.917-5.669-7.636-9.15-11.091-.453-.45-.912-.893-1.378-1.329.615.051 1.236.077 1.864.077 11.946 0 21.685-9.415 22.086-21.173.007.006.007.006.013.013 3.482 3.455 7.228 6.48 11.176 9.081 1.526 1.007 1.526 3.242-.001 4.25z" fill="#27b2ff"/></g></g></g></g></g><g><g><path d="m202.035 60.669c2.211-1.456 2.211-4.691 0-6.148-5.707-3.759-11.124-8.133-16.154-13.125s-9.438-10.368-13.226-16.031c-1.468-2.194-4.727-2.194-6.195 0-3.788 5.663-8.196 11.039-13.226 16.031s-10.447 9.366-16.154 13.125c-2.211 1.456-2.211 4.691 0 6.148 5.707 3.759 11.124 8.133 16.154 13.125s9.438 10.368 13.226 16.031c1.468 2.194 4.727 2.194 6.195 0 3.788-5.663 8.196-11.039 13.226-16.031s10.447-9.366 16.154-13.125z" fill="#ffc751"/></g><g><path d="m202.038 60.67c-5.706 3.76-11.122 8.132-16.154 13.126s-9.438 10.369-13.227 16.032c-1.469 2.191-4.724 2.191-6.192 0-3.788-5.663-8.194-11.037-13.227-16.032-.655-.65-1.319-1.29-1.992-1.922.889.074 1.787.111 2.694.111 17.268 0 31.345-13.609 31.925-30.606.009.009.009.009.019.019 5.032 4.994 10.448 9.367 16.154 13.126 2.207 1.458 2.207 4.689 0 6.146z" fill="#ffaf40"/></g></g><g><g><path d="m484.584 213.366c2.211-1.456 2.211-4.691 0-6.148-5.707-3.759-11.124-8.133-16.154-13.125s-9.438-10.368-13.226-16.031c-1.468-2.194-4.727-2.194-6.195 0-3.788 5.663-8.196 11.039-13.226 16.031s-10.447 9.366-16.154 13.125c-2.211 1.456-2.211 4.691 0 6.148 5.707 3.759 11.124 8.133 16.154 13.125s9.438 10.368 13.226 16.031c1.468 2.194 4.727 2.194 6.195 0 3.788-5.663 8.196-11.039 13.226-16.031s10.447-9.366 16.154-13.125z" fill="#73e1ff"/></g><g><path d="m484.587 213.367c-5.706 3.76-11.122 8.132-16.154 13.126-5.033 4.994-9.438 10.369-13.227 16.032-1.469 2.191-4.724 2.191-6.192 0-3.788-5.663-8.194-11.037-13.227-16.032-.655-.65-1.319-1.29-1.992-1.922.889.074 1.787.111 2.694.111 17.268 0 31.345-13.609 31.925-30.606l.019.019c5.033 4.994 10.448 9.367 16.154 13.126 2.207 1.458 2.207 4.689 0 6.146z" fill="#5cceff"/></g></g><g><g><g><g><g><path d="m451.018 232.964c1.227-.809 1.227-2.604 0-3.413-3.168-2.087-6.176-4.515-8.968-7.287-2.793-2.771-5.24-5.756-7.343-8.9-.815-1.218-2.624-1.218-3.439 0-2.103 3.144-4.55 6.129-7.343 8.9-2.793 2.772-5.8 5.2-8.968 7.287-1.227.809-1.227 2.604 0 3.413 3.168 2.087 6.176 4.515 8.968 7.287 2.793 2.772 5.24 5.756 7.343 8.9.815 1.218 2.624 1.218 3.439 0 2.103-3.144 4.55-6.129 7.343-8.9 2.792-2.772 5.8-5.2 8.968-7.287z" fill="#ffe059"/></g></g><g><g><path d="m451.019 232.962c-3.168 2.087-6.175 4.515-8.969 7.287s-5.24 5.757-7.343 8.9c-.815 1.216-2.623 1.216-3.438 0-2.103-3.144-4.549-6.128-7.343-8.9-.363-.361-.732-.716-1.106-1.067.493.041.992.062 1.496.062 9.587 0 17.402-7.555 17.724-16.992l.01.01c2.794 2.773 5.801 5.2 8.969 7.287 1.225.811 1.225 2.604 0 3.413z" fill="#ffc751"/></g></g></g></g></g><g><g><g><g><g><path d="m491.931 128.032c1.227-.809 1.227-2.604 0-3.413-3.168-2.087-6.176-4.515-8.968-7.287-2.793-2.772-5.24-5.756-7.343-8.9-.815-1.218-2.624-1.218-3.439 0-2.103 3.144-4.55 6.129-7.343 8.9s-5.8 5.2-8.968 7.287c-1.227.809-1.227 2.604 0 3.413 3.168 2.087 6.176 4.515 8.968 7.287 2.793 2.771 5.24 5.756 7.343 8.9.815 1.218 2.624 1.218 3.439 0 2.103-3.144 4.55-6.129 7.343-8.9 2.792-2.771 5.8-5.199 8.968-7.287z" fill="#fc709b"/></g></g><g><g><path d="m491.932 128.031c-3.168 2.087-6.175 4.515-8.969 7.287-2.794 2.773-5.24 5.757-7.343 8.9-.815 1.216-2.623 1.216-3.438 0-2.103-3.144-4.549-6.128-7.343-8.9-.363-.361-.732-.716-1.106-1.067.493.041.992.062 1.496.062 9.587 0 17.402-7.555 17.724-16.992.005.005.005.005.01.01 2.794 2.773 5.801 5.2 8.969 7.287 1.225.81 1.225 2.604 0 3.413z" fill="#fe255f"/></g></g></g></g></g></g><g fill="#d8d4c9"><path d="m75.961 466.01c.16 9.71 2.8 19.87 6.41 29.27l-32.22 13.84c-5.72-14.42-8.78-28.14-9.18-41.02 1.24.02 2.48.03 3.72.03 10.61 0 21.05-.72 31.27-2.12z"/><path d="m263.941 304.89c-1.41 10.05-3.04 20.13-4.93 30.16-6.71 35.63-19.15 57.68-39.13 69.41-8.45 4.96-17.42 7.54-26.6 8.85 33.03-28.24 57.92-65.71 70.66-108.42z"/></g><g><path d="m61.679 454.192c-11.399-1.898-17.853-14.303-12.654-24.624 6.162-12.234 15.793-22.682 28.806-31.208 22.657-14.856 45.574-18.192 65.948-18.801 10.057-.301 18.321 7.875 18.191 17.935-.12 9.311-7.609 16.776-16.917 17.025-16.489.441-32.387 2.858-48.032 13.11-7.603 4.984-13.081 10.741-16.543 17.421-3.533 6.817-11.226 10.403-18.799 9.142z" fill="#f9f8f2"/></g></g><path d="m115.911 258.737c-.089-.047-.178-.093-.267-.14-7.653-4.017-17.107-.644-20.518 7.297l-17.73 41.272-6.54 21.432-12.845 23.691-3.533 8.223c-2.956 6.882-.333 14.902 6.136 18.679.087.051.174.102.261.152 7.714 4.497 17.625 1.247 21.149-6.957l14.503-33.76 5.718-19.513 10.059-17.213 10.373-24.145c3.066-7.134.109-15.41-6.766-19.018z" fill="#fc709b"/><g><path d="m112.34 301.82-15.78 36.73c-11.56 1.99-22.73 5.64-33.44 10.93-1.76.87-3.43 1.75-5.03 2.64h-.01l19.44-45.25h.01c10.5-2.75 22.13-4.62 34.81-5.05z" fill="#f9f8f2"/></g></g></svg>