<?xml version="1.0" encoding="iso-8859-1"?>
<!-- Generator: Adobe Illustrator 19.0.0, SVG Export Plug-In . SVG Version: 6.00 Build 0)  -->
<svg version="1.1" id="Capa_1" xmlns="http://www.w3.org/2000/svg" xmlns:xlink="http://www.w3.org/1999/xlink" x="0px" y="0px"
	 viewBox="0 0 512 512" style="enable-background:new 0 0 512 512;" xml:space="preserve">
<path style="fill:#E55639;" d="M323,167.199c-21,9.3-44.2,13.801-67,13.801s-46-4.501-67-13.801c-7.5-3.3-11.1-11.999-7.8-19.799
	c3.301-7.5,12.301-11.1,19.801-7.5c17.1,7.5,36.4,11.1,55,11.1s37.899-3.6,55-11.1c7.5-3.6,16.5,0,19.801,7.5
	C334.1,155.2,330.5,163.9,323,167.199z"/>
<path style="fill:#B37447;" d="M323,227.199c-21,9.3-44.2,13.801-67,13.801s-46-4.501-67-13.801c-7.5-3.3-11.1-11.999-7.8-19.799
	c3.301-7.5,12.301-11.1,19.801-7.5c17.1,7.5,36.4,11.1,55,11.1s37.899-3.6,55-11.1c7.5-3.6,16.5,0,19.801,7.5
	C334.1,215.2,330.5,223.9,323,227.199z"/>
<path style="fill:#995C3D;" d="M323,227.199c-21,9.3-44.2,13.801-67,13.801v-30c18.6,0,37.899-3.6,55-11.1
	c7.5-3.6,16.5,0,19.801,7.5C334.1,215.2,330.5,223.9,323,227.199z"/>
<path style="fill:#CF4529;" d="M323,167.199c-21,9.3-44.2,13.801-67,13.801v-30c18.6,0,37.899-3.6,55-11.1
	c7.5-3.6,16.5,0,19.801,7.5C334.1,155.2,330.5,163.9,323,167.199z"/>
<path style="fill:#B37447;" d="M165,437c0,8.399-6.599,15-15,15H60c-8.401,0-15-6.601-15-15c0-8.401,6.599-15,15-15h90
	C158.401,422,165,428.599,165,437z"/>
<path style="fill:#995C3D;" d="M165,437c0,8.399-6.599,15-15,15h-45v-30h45C158.401,422,165,428.599,165,437z"/>
<path style="fill:#B37447;" d="M165,377c0,8.399-6.599,15-15,15H60c-8.401,0-15-6.601-15-15c0-8.401,6.599-15,15-15h90
	C158.401,362,165,368.599,165,377z"/>
<path style="fill:#995C3D;" d="M165,377c0,8.399-6.599,15-15,15h-45v-30h45C158.401,362,165,368.599,165,377z"/>
<path style="fill:#B37447;" d="M165,317c0,8.399-6.599,15-15,15H60c-8.401,0-15-6.601-15-15c0-8.401,6.599-15,15-15h90
	C158.401,302,165,308.599,165,317z"/>
<path style="fill:#995C3D;" d="M165,317c0,8.399-6.599,15-15,15h-45v-30h45C158.401,302,165,308.599,165,317z"/>
<path style="fill:#7F838C;" d="M45,512c-8.291,0-15-6.709-15-15V257c0-8.291,6.709-16,15-16s15,7.709,15,16v240
	C60,505.291,53.291,512,45,512z"/>
<path style="fill:#757982;" d="M165,512c-8.291,0-15-6.709-15-15V257c0-8.291,6.709-16,15-16s15,7.709,15,16v240
	C180,505.291,173.291,512,165,512z"/>
<path style="fill:#53565C;" d="M195,512h-60c-8.291,0-15-6.709-15-15s6.709-15,15-15h60c8.291,0,15,6.709,15,15S203.291,512,195,512
	z"/>
<path style="fill:#5C5F66;" d="M75,512H15c-8.291,0-15-6.709-15-15s6.709-15,15-15h60c8.291,0,15,6.709,15,15S83.291,512,75,512z"/>
<path style="fill:#F9BC35;" d="M0,91v166c0,8.399,6.599,15,15,15h180c8.401,0,15-6.601,15-15V91H0z"/>
<path style="fill:#F39E31;" d="M210,91v166c0,8.399-6.599,15-15,15h-90V91H210z"/>
<path style="fill:#995C3D;" d="M150,196v76H60v-76c0-24.901,20.099-45,45-45S150,171.099,150,196z"/>
<path style="fill:#804D33;" d="M150,196v76h-45V151C129.901,151,150,171.099,150,196z"/>
<path style="fill:#E55639;" d="M210,91H0L94.501,4.499C97.2,1.5,101.1,0,105,0s7.8,1.5,10.499,4.499L210,91z"/>
<path style="fill:#CF4529;" d="M210,91H105V0c3.9,0,7.8,1.5,10.499,4.499L210,91z"/>
<path style="fill:#B37447;" d="M467,437c0,8.399-6.599,15-15,15h-90c-8.401,0-15-6.601-15-15c0-8.401,6.599-15,15-15h90
	C460.401,422,467,428.599,467,437z"/>
<path style="fill:#995C3D;" d="M467,437c0,8.399-6.599,15-15,15h-45v-30h45C460.401,422,467,428.599,467,437z"/>
<path style="fill:#B37447;" d="M467,377c0,8.399-6.599,15-15,15h-90c-8.401,0-15-6.601-15-15c0-8.401,6.599-15,15-15h90
	C460.401,362,467,368.599,467,377z"/>
<path style="fill:#995C3D;" d="M467,377c0,8.399-6.599,15-15,15h-45v-30h45C460.401,362,467,368.599,467,377z"/>
<path style="fill:#B37447;" d="M467,317c0,8.399-6.599,15-15,15h-90c-8.401,0-15-6.601-15-15c0-8.401,6.599-15,15-15h90
	C460.401,302,467,308.599,467,317z"/>
<path style="fill:#995C3D;" d="M467,317c0,8.399-6.599,15-15,15h-45v-30h45C460.401,302,467,308.599,467,317z"/>
<path style="fill:#7F838C;" d="M347,512c-8.291,0-15-6.709-15-15V257c0-8.291,6.709-16,15-16s15,7.709,15,16v240
	C362,505.291,355.291,512,347,512z"/>
<path style="fill:#757982;" d="M467,512c-8.291,0-15-6.709-15-15V257c0-8.291,6.709-16,15-16s15,7.709,15,16v240
	C482,505.291,475.291,512,467,512z"/>
<path style="fill:#53565C;" d="M497,512h-60c-8.291,0-15-6.709-15-15s6.709-15,15-15h60c8.291,0,15,6.709,15,15S505.291,512,497,512
	z"/>
<path style="fill:#5C5F66;" d="M377,512h-60c-8.291,0-15-6.709-15-15s6.709-15,15-15h60c8.291,0,15,6.709,15,15S385.291,512,377,512
	z"/>
<path style="fill:#F9BC35;" d="M302,91v166c0,8.399,6.599,15,15,15h180c8.401,0,15-6.601,15-15V91H302z"/>
<path style="fill:#F39E31;" d="M512,91v166c0,8.399-6.599,15-15,15h-90V91H512z"/>
<path style="fill:#995C3D;" d="M452,196v76h-90v-76c0-24.901,20.099-45,45-45S452,171.099,452,196z"/>
<path style="fill:#804D33;" d="M452,196v76h-45V151C431.901,151,452,171.099,452,196z"/>
<path style="fill:#E55639;" d="M512,91H302l94.501-86.501C399.2,1.5,403.1,0,407,0s7.8,1.5,10.499,4.499L512,91z"/>
<path style="fill:#CF4529;" d="M512,91H407V0c3.9,0,7.8,1.5,10.499,4.499L512,91z"/>
<g>
</g>
<g>
</g>
<g>
</g>
<g>
</g>
<g>
</g>
<g>
</g>
<g>
</g>
<g>
</g>
<g>
</g>
<g>
</g>
<g>
</g>
<g>
</g>
<g>
</g>
<g>
</g>
<g>
</g>
</svg>
