<svg id="Capa_1" enable-background="new 0 0 512 512" height="512" viewBox="0 0 512 512" width="512" xmlns="http://www.w3.org/2000/svg"><g><path d="m512 256c0 56.875-18.539 109.419-49.92 151.904h-.011l-16.939 4.747c-9.696 2.709-12.875 14.869-5.76 21.984-46.495 47.722-111.466 77.365-183.37 77.365s-136.875-29.643-183.371-77.365c0-10.752-6.581-20.405-16.587-24.331l-6.112-2.4-.011.011c-31.37-42.486-49.919-95.03-49.919-151.915 0-141.387 114.613-256 256-256 35.029 0 68.416 7.04 98.816 19.787 1.152.48 2.293.96 3.435 1.461.779.331 1.547.672 2.315 1.013 16.384 7.339 31.861 16.352 46.208 26.837 25.867 18.869 48.053 42.485 65.301 69.557 25.28 39.681 39.925 86.806 39.925 137.345z" fill="#9bc6f9"/><g><g><path d="m512 256c0 50.528-14.645 97.643-39.925 137.323-3.168 4.981-6.507 9.845-10.005 14.581l-16.939 4.747c-9.696 2.709-12.875 14.869-5.76 21.984-11.392 11.701-23.915 22.315-37.365 31.68-41.419 28.8-91.734 45.685-146.006 45.685s-104.587-16.885-146.005-45.685c-13.451-9.365-25.973-19.979-37.365-31.68 0-10.752-6.581-20.405-16.587-24.331l-6.112-2.4c-3.765-5.077-7.328-10.315-10.709-15.68-24.843-39.445-39.222-86.155-39.222-136.224 0-46.219 12.245-89.568 33.675-126.997 30.208 52.757 78.656 93.739 136.747 114.336 8.736 3.104 17.696 5.749 26.837 7.893 10.923 2.571 22.112 4.427 33.525 5.547h.011c8.288.811 16.704 1.227 25.205 1.227 95.157 0 178.208-51.936 222.325-129.003 21.43 37.429 33.675 80.778 33.675 126.997z" fill="#83b2ff"/></g></g><path d="m439.371 434.635c-11.392 11.701-23.915 22.315-37.365 31.68-41.419 28.8-91.734 45.685-146.006 45.685s-104.587-16.885-146.005-45.685c-13.451-9.365-25.973-19.979-37.365-31.68 0-3.008-.512-5.92-1.472-8.651h364.362c.149 3.083 1.376 6.176 3.851 8.651z" fill="#82dcec"/><path d="m439.371 434.635c-11.392 11.701-23.915 22.315-37.365 31.68-41.419 28.8-91.734 45.685-146.006 45.685v-86.016h179.52c.149 3.083 1.376 6.176 3.851 8.651z" fill="#6fced8"/><g><path d="m151.435 289.835h37.739v128.608h-37.739z" fill="#3b407a"/><path d="m170.304 289.835h18.869v128.608h-18.869z" fill="#2f316e"/><path d="m267.915 195.499c0 8.565-2.293 16.928-6.581 24.235-1.397 2.389-3.008 4.651-4.821 6.784l-25.717 30.261-136.279 160.288c-.395.469-.8.928-1.205 1.376h-26.304c-2.805-3.563-6.549-6.411-10.965-8.139l-6.112-2.4c-3.765-5.077-7.328-10.315-10.709-15.68 4.469-1.728 8.491-4.555 11.669-8.299l119.531-140.587 26.069-30.667c9.259-10.891 22.848-17.173 37.152-17.173h34.272z" fill="#fed110"/><path d="m261.333 219.733c-1.397 2.389-3.008 4.651-4.821 6.784l-25.717 30.261h-.011l-136.267 160.289c-.395.469-.8.928-1.205 1.376h-26.304c-1.973-2.517-4.427-4.672-7.253-6.336 1.472-1.163 2.837-2.475 4.075-3.936l133.429-156.939 12.171-14.315c9.259-10.901 22.848-17.184 37.152-17.184z" fill="#f4b311"/><path d="m312.527 195.496h96.077v37.736h-96.077z" fill="#2f316e"/><path d="m286.784 195.499v222.944h-37.728v-185.216c0-13.952 7.584-26.144 18.859-32.672 5.546-3.211 12-5.056 18.869-5.056z" fill="#3b407a"/><path d="m286.784 195.499v222.944h-18.869v-217.888c5.546-3.211 12-5.056 18.869-5.056z" fill="#2f316e"/><path d="m472.075 233.227v160.096c-3.168 4.981-6.507 9.845-10.005 14.581-.064.085-.117.16-.181.245-2.325 3.115-5.301 5.589-8.672 7.339-3.669 1.92-7.797 2.955-12.053 2.955h-6.816v-222.944c6.869 0 13.323 1.845 18.869 5.056 2.869 1.653 5.483 3.669 7.808 5.995 6.826 6.826 11.05 16.255 11.05 26.677z" fill="#3b407a"/><path d="m472.075 233.227v160.096c-3.168 4.981-6.507 9.845-10.005 14.581-.064.085-.117.16-.181.245-2.325 3.115-5.301 5.589-8.672 7.339v-214.933c2.869 1.653 5.483 3.669 7.808 5.995 6.826 6.826 11.05 16.255 11.05 26.677z" fill="#2f316e"/><path d="m304.16 195.499h37.739v222.944h-37.739z" fill="#3b407a"/><path d="m323.029 195.499h18.869v222.944h-18.869z" fill="#2f316e"/><g><path d="m379.232 195.499h37.739v222.944h-37.739z" fill="#3b407a"/><path d="m398.101 195.499h18.869v222.944h-18.869z" fill="#2f316e"/></g><g><path d="m304.161 265.249h112.808v37.736h-112.808z" fill="#3b407a"/><path d="m304.161 284.117h112.808v18.868h-112.808z" fill="#2f316e"/></g><g><path d="m304.161 340.722h112.808v37.736h-112.808z" fill="#3b407a"/><path d="m304.161 359.59h112.808v18.868h-112.808z" fill="#2f316e"/></g><path d="m276.996 93.573h176.213v116.889h-176.213z" fill="#2f316e"/><path d="m276.996 93.573h83.573v116.889h-83.573z" fill="#3b407a"/><path d="m472.075 118.656v17.643l-8.491-2.251c-34.901-9.248-65.6-30.123-87.04-59.168l-15.979-21.643-15.968 21.643c-21.44 29.045-52.149 49.92-87.051 59.168l-8.491 2.251-.011.032v-26.357c0-7.179 3.392-13.931 9.152-18.219l88.789-66.133 7.829-5.835c1.152.48 2.293.96 3.435 1.461.779.331 1.547.672 2.315 1.013 16.384 7.339 31.861 16.352 46.208 26.837 25.868 18.87 48.055 42.486 65.303 69.558z" fill="#3b407a"/><path d="m472.075 118.656v17.643l-8.491-2.251c-34.901-9.248-65.6-30.123-87.04-59.168l-15.979-21.643v-30.976c45.942 20.576 84.704 54.304 111.51 96.395z" fill="#2f316e"/><g><path d="m304.165 197.411v-32.226c0-30.93 24.511-56.809 55.437-57.327 31.59-.53 57.363 24.928 57.363 56.408v33.146c0 8.523 6.909 15.432 15.432 15.432h24.251c8.523 0 15.432-6.909 15.432-15.432v-61.112l-111.51-83.063-111.52 83.061v61.112c0 8.523 6.909 15.432 15.432 15.432h24.251c8.522.001 15.432-6.908 15.432-15.431z" fill="#ff514d"/><path d="m416.965 164.265v33.146c0 8.523 6.909 15.432 15.432 15.432h24.251c8.523 0 15.432-6.909 15.432-15.432v-61.112l-111.51-83.062v54.612c31.146 0 56.395 25.259 56.395 56.416z" fill="#f03e73"/></g><path d="m249.052 195.496h55.11v37.736h-55.11z" fill="#fff"/><path d="m416.97 195.496h55.11v37.736h-55.11z" fill="#dfebff"/></g><path d="m462.069 407.904c-4.608 6.251-9.493 12.288-14.645 18.08-2.613 2.944-5.301 5.824-8.053 8.651h-366.742c-2.752-2.827-5.44-5.707-8.053-8.651-2.197-2.475-4.341-4.981-6.443-7.541-.939-1.141-1.867-2.283-2.773-3.445-.843-1.056-1.685-2.133-2.507-3.211-.149-.181-.299-.373-.437-.565-.843-1.099-1.664-2.208-2.485-3.317h412.138z" fill="#fff"/><path d="m462.069 407.904c-4.608 6.251-9.493 12.288-14.645 18.08-2.613 2.944-5.301 5.824-8.053 8.651h-183.371v-26.731z" fill="#dfebff"/></g></svg>