<svg id="Capa_1" enable-background="new 0 0 512 512" height="512" viewBox="0 0 512 512" width="512" xmlns="http://www.w3.org/2000/svg"><g><g><circle cx="243.437" cy="331.546" fill="#fff370" r="15.514"/><path d="m254.411 342.517c6.058-6.058 6.051-15.88-.007-21.938s-15.88-6.065-21.938-.007c-.635.635-1.193 1.306-1.695 2.019 4.152-2.725 9.772-2.259 13.422 1.391 4.173 4.173 4.173 10.951-.007 15.131-3.643 3.643-9.271 4.102-13.415 1.384.501.713 1.059 1.384 1.695 2.019 6.059 6.059 15.887 6.059 21.945.001z" fill="#ffe059"/></g><g><g><path d="m308.171 186.83-20.586-23.748c-1.822-2.101-5.002-2.328-7.103-.506l-7.706 6.681c-4.203 3.643-4.656 10.003-1.013 14.206l20.586 23.748c1.822 2.101 5.002 2.328 7.103.506l7.706-6.681c4.202-3.643 4.656-10.003 1.013-14.206z" fill="#5cceff"/><path d="m308.172 186.829-9.101-10.489c.64 6.475-.615 13.186-4.012 19.294-1.645 2.957-3.67 5.564-5.99 7.788l3.278 3.782c1.823 2.109 5.005 2.334 7.1.515l7.714-6.68c4.203-3.643 4.654-10.007 1.011-14.21z" fill="#27b2ff"/></g><circle cx="317.765" cy="259.995" fill="#73e1ff" r="15.514"/><path d="m328.739 270.966c6.058-6.058 6.051-15.88-.007-21.938s-15.88-6.065-21.938-.007c-.635.635-1.193 1.306-1.695 2.019 4.152-2.725 9.772-2.259 13.422 1.391 4.173 4.173 4.173 10.951-.007 15.131-3.643 3.643-9.271 4.102-13.415 1.384.501.713 1.059 1.384 1.695 2.019 6.059 6.059 15.887 6.059 21.945.001z" fill="#5cceff"/></g><g><g><path d="m434.482 433.366-20.586-23.748c-1.822-2.101-5.002-2.328-7.103-.506l-7.706 6.681c-4.203 3.643-4.656 10.003-1.013 14.206l20.586 23.748c1.822 2.101 5.002 2.328 7.103.506l7.706-6.681c4.203-3.643 4.656-10.004 1.013-14.206z" fill="#29e088"/><path d="m434.483 433.365-9.101-10.489c.64 6.475-.615 13.186-4.012 19.294-1.645 2.957-3.67 5.564-5.99 7.788l3.278 3.782c1.823 2.109 5.005 2.334 7.1.515l7.714-6.681c4.203-3.642 4.654-10.006 1.011-14.209z" fill="#0cc166"/></g><g><path d="m140.653 406.336 6.43-30.764c.569-2.722-1.177-5.39-3.899-5.959l-9.983-2.086c-5.444-1.138-10.78 2.353-11.918 7.797l-6.43 30.764c-.569 2.722 1.177 5.39 3.899 5.959l9.983 2.086c5.444 1.138 10.78-2.353 11.918-7.797z" fill="#5cceff"/><path d="m140.655 406.336 2.834-13.594c-4.765 4.43-10.865 7.497-17.783 8.493-3.349.482-6.651.449-9.826-.05l-1.024 4.899c-.574 2.728 1.174 5.396 3.891 5.962l9.988 2.092c5.444 1.138 10.781-2.357 11.92-7.802z" fill="#27b2ff"/></g></g><g><g><path d="m140.007 373.755c-2.191 5.327-8.434 7.661-13.603 5.121-73.753-36.245-107.74-124.012-76.025-201.125 33.075-80.419 125.079-118.799 205.497-85.725z" fill="#ffe059"/><path d="m54.059 228.783c11.395 4.537 24.106-2.299 26.508-14.326 1.453-7.276 3.619-14.505 6.535-21.597 15.391-37.426 48.249-63.65 86.944-70.928 8.816-1.658 15.373-9.108 15.931-18.061.008-.133.017-.266.025-.399.797-12.763-10.612-22.947-23.176-20.568-50.56 9.574-95.419 43.708-116.449 94.845-3.872 9.415-6.76 18.99-8.718 28.61-1.907 9.373 3.117 18.737 12.006 22.269.133.051.264.103.394.155z" fill="#fff370"/><path d="m212.683 197.049-72.674 176.701c-2.194 5.332-8.439 7.664-13.602 5.123-40.854-20.075-69.507-55.965-81.54-97.087 8.161 1.281 16.52 1.946 25.039 1.946 62.091 0 115.962-35.176 142.777-86.683z" fill="#ffc751"/><path d="m371.993 373.755c2.191 5.327 8.434 7.661 13.603 5.121 73.753-36.245 107.74-124.012 76.025-201.125-33.075-80.419-125.079-118.799-205.497-85.725z" fill="#ffe059"/><path d="m385.592 378.873c-5.163 2.542-11.407.209-13.602-5.123l-12.4-30.152c44.677-35.155 73.359-89.701 73.359-150.957 0-26.737-5.47-52.202-15.349-75.335 18.744 15.796 34.054 36.208 44.021 60.443 31.711 77.112-2.273 164.877-76.029 201.124z" fill="#ffc751"/></g><path d="m464.978 186.674c-39.385 37.459-87.12 63.163-138.934 75.355l17.166 41.748c16.421-4.239 32.534-9.69 48.3-16.362 29.616-12.52 57.067-28.901 81.977-48.896.108-17.245-2.632-34.748-8.509-51.845z" fill="#fe255f"/><path d="m38.514 238.519c24.91 19.995 52.361 36.377 81.977 48.896 15.766 6.672 31.879 12.122 48.3 16.362l17.166-41.748c-51.815-12.192-99.55-37.896-138.935-75.355-5.877 17.097-8.617 34.6-8.508 51.845z" fill="#fe255f"/><path d="m185.957 262.029-17.166 41.748c-16.421-4.239-32.535-9.69-48.3-16.362-5.49-2.323-10.901-4.775-16.242-7.357 20.869-4.537 40.229-13.125 57.216-24.91 8.051 2.642 16.222 4.935 24.492 6.881z" fill="#e01152"/><path d="m473.486 238.519c-18.675 14.992-38.789 27.958-60.165 38.789 9.571-19.439 15.945-40.745 18.437-63.212 11.616-8.27 22.715-17.434 33.22-27.421 5.877 17.096 8.617 34.599 8.508 51.844z" fill="#e01152"/><path d="m128.038 95.618c-5.035 2.405-9.945 5.078-14.707 8.008-10.748 6.613-12.467 21.595-3.543 30.519.094.094.188.188.282.282 6.415 6.411 16.388 7.669 24.111 2.915 3.585-2.206 7.29-4.219 11.101-6.031 9.236-4.39 13.476-15.201 9.792-24.741l-.143-.371c-4.139-10.717-16.526-15.534-26.893-10.581z" fill="#fff7c7"/><path d="m47.022 186.674c-.02.059-.04.119-.07.169-2.204 6.463-3.961 12.986-5.292 19.519-1.906 9.372 3.117 18.735 12.003 22.269.129.049.268.099.397.149 11.398 4.537 24.106-2.293 26.508-14.326.01-.04.01-.07.02-.109-11.744-8.34-22.952-17.584-33.566-27.671z" fill="#fc709b"/><path d="m346.165 206.545-26.461-64.337c-4.354-10.586-16.818-15.204-27.02-10.014-.153.078-.305.155-.458.233-9.106 4.632-13.125 15.479-9.239 24.927l26.447 64.302c4.135 10.054 15.66 14.819 25.689 10.624.158-.066.315-.132.473-.198 9.948-4.157 14.67-15.566 10.569-25.537z" fill="#fff370"/></g><g><path d="m243.239 12.136v74.473c0 6.682 5.228 12.415 11.909 12.537 6.807.125 12.364-5.356 12.364-12.134v-74.876c0-6.702-5.434-12.136-12.136-12.136-6.703 0-12.137 5.434-12.137 12.136z" fill="#db765a"/><g fill="#b55434"><path d="m267.512 63.049-24.273 17.354v-21.722l24.273-17.354z"/><path d="m243.239 12.136v20.594l24.273-17.354v-3.241c0-6.701-5.434-12.135-12.136-12.135-6.703 0-12.137 5.434-12.137 12.136z"/></g></g><g><path d="m206.482 425.383-35.582-51.583-10.057 32.645c-.928 3.012-.425 6.284 1.365 8.878l29.55 42.84c2.442 3.541 7.892 2.703 9.159-1.408l6.929-22.493c.928-3.013.425-6.284-1.364-8.879z" fill="#ff5ad0"/><path d="m237.571 324.464-35.582-51.583-10.057 32.645c-.928 3.012-.425 6.284 1.365 8.878l35.582 51.583 10.057-32.645c.928-3.012.425-6.283-1.365-8.878z" fill="#ff5ad0"/><path d="m228.876 365.984 10.059-32.644c.929-3.005.429-6.282-1.366-8.873l-12.97-18.808c2.591 13.22-1.171 27.439-11.285 37.771z" fill="#f91ed0"/><path d="m178.321 363.019 58.441-22.618-10.057 32.645c-.928 3.012-3.185 5.434-6.124 6.571l-58.441 22.618 10.057-32.645c.928-3.012 3.184-5.433 6.124-6.571z" fill="#29e088"/><path d="m268.661 223.545-29.55-42.84c-2.442-3.541-7.892-2.703-9.159 1.408l-6.929 22.493c-.928 3.012-.425 6.284 1.365 8.878l35.582 51.583 10.057-32.645c.927-3.011.424-6.282-1.366-8.877z" fill="#ff5ad0"/><path d="m259.967 265.062 10.059-32.644c.929-3.005.421-6.274-1.366-8.873l-14.742-21.36c4.253 13.805 1.155 29.405-9.31 40.62z" fill="#f91ed0"/><path d="m209.411 262.1 58.441-22.618-10.057 32.645c-.928 3.012-3.185 5.434-6.124 6.571l-58.441 22.618 10.057-32.645c.928-3.012 3.184-5.433 6.124-6.571z" fill="#29e088"/><path d="m341.814 416.782-53.416-32.766 4.018 33.921c.371 3.13 2.155 5.918 4.841 7.566l53.416 32.767-4.018-33.921c-.371-3.131-2.155-5.919-4.841-7.567z" fill="#ffaf40"/><path d="m350.671 458.27-4.019-33.921c-.372-3.132-2.154-5.92-4.837-7.563l-3.967-2.434c-1.604 6.038-4.937 11.683-9.94 16.155-3.464 3.097-7.388 5.331-11.537 6.717z" fill="#ff993a"/><path d="m303.24 476.02 44.284-44.338 4.018 33.921c.371 3.13-.713 6.258-2.94 8.488l-36.238 36.283c-3.258 3.262-8.842 1.328-9.384-3.251l-2.679-22.616c-.372-3.129.712-6.256 2.939-8.487z" fill="#8f6bdd"/><path d="m329.394 311.915-44.362-27.212c-3.666-2.249-8.311.723-7.805 4.994l2.768 23.373c.371 3.13 2.155 5.918 4.841 7.566l53.416 32.766-4.018-33.921c-.37-3.129-2.154-5.917-4.84-7.566z" fill="#ffaf40"/><path d="m338.249 353.401-4.019-33.921c-.365-3.123-2.154-5.92-4.837-7.563l-15.371-9.427c5.527 10.736 3.771 24.105-4.882 33.055z" fill="#ff993a"/><path d="m290.82 371.154 44.284-44.338 4.018 33.921c.371 3.13-.713 6.258-2.94 8.488l-44.284 44.338-4.018-33.921c-.371-3.13.712-6.258 2.94-8.488z" fill="#8f6bdd"/><path d="m273.78 472.865-20.586-23.748c-1.822-2.101-5.002-2.328-7.103-.506l-7.706 6.681c-4.203 3.643-4.656 10.003-1.013 14.206l20.586 23.748c1.822 2.101 5.002 2.328 7.103.506l7.706-6.681c4.203-3.643 4.656-10.003 1.013-14.206z" fill="#ffaf40"/><path d="m273.781 472.864-9.101-10.489c.64 6.475-.615 13.186-4.012 19.294-1.645 2.957-3.67 5.564-5.99 7.788l3.278 3.782c1.823 2.109 5.005 2.334 7.1.515l7.714-6.681c4.204-3.642 4.654-10.006 1.011-14.209z" fill="#ff993a"/><circle cx="254.563" cy="440.845" fill="#ff5ad0" r="15.514"/><g fill="#f91ed0"><path d="m265.533 451.818c6.058-6.058 6.058-15.887 0-21.945s-15.887-6.058-21.945 0c-.565.565-1.08 1.165-1.539 1.793 4.356-3.043 10.408-2.612 14.291 1.271 4.364 4.364 4.356 11.445-.007 15.809-3.883 3.883-9.92 4.314-14.277 1.271.459.628.974 1.229 1.539 1.793 6.059 6.059 15.88 6.066 21.938.008z"/><path d="m200.914 456.752 6.93-22.491c.936-3.012.429-6.282-1.366-8.873l-7.937-11.511c1.491 12.728-4.105 25.425-14.648 32.878l7.867 11.409c2.443 3.536 7.89 2.709 9.154-1.412z"/></g></g><g><path d="m120.935 463.124-20.586-23.748c-1.822-2.101-5.002-2.328-7.103-.506l-7.706 6.681c-4.203 3.643-4.656 10.003-1.013 14.206l20.586 23.748c1.822 2.101 5.002 2.328 7.103.506l7.706-6.681c4.203-3.643 4.657-10.003 1.013-14.206z" fill="#8f6bdd"/><path d="m120.937 463.123-9.101-10.489c.64 6.475-.615 13.186-4.012 19.294-1.645 2.957-3.67 5.564-5.99 7.788l3.278 3.782c1.823 2.109 5.005 2.334 7.1.515l7.714-6.681c4.203-3.642 4.653-10.005 1.011-14.209z" fill="#8042e0"/></g><g><circle cx="256.124" cy="89.137" fill="#fe255f" r="28.558"/><g><circle cx="248.06" cy="81.073" fill="#fc709b" r="17.049"/></g></g></g></svg>