<svg height="512" viewBox="0 0 60 60" width="512" xmlns="http://www.w3.org/2000/svg"><g id="021---Ping-Pong-Table" fill="none"><g id="Icons" transform="translate(1 1)"><rect id="Rectangle-path" fill="#007900" height="4" rx="1" width="58" y="27"/><path id="Shape" d="m55 28v2c0 .5522847-.4477153 1-1 1h-53c-.55228475 0-1-.4477153-1-1v-2c0-.5522847.44771525-1 1-1h53.1c.5129013.051542.9025832.4845219.9 1z" fill="#008a00"/><path id="Shape" d="m8 54v2c0 1.1045695-.8954305 2-2 2s-2-.8954305-2-2v-2z" fill="#a0522d"/><path id="Rectangle-path" d="m4 31h4v23h-4z" fill="#a0522d"/><path id="Shape" d="m28 15h2c.5522847 0 1 .4477153 1 1v11h-4v-11c0-.5522847.4477153-1 1-1z" fill="#3f51b5"/><circle id="Oval" cx="2" cy="2" fill="#f5f5f5" r="2"/><path id="Shape" d="m54 54v2c0 1.1045695-.8954305 2-2 2s-2-.8954305-2-2v-2z" fill="#783e22"/><path id="Rectangle-path" d="m50 31h4v23h-4z" fill="#783e22"/><path id="Shape" d="m19.44 31-11.44 11.44v-5.66l5.78-5.78z" fill="#825a2c"/><path id="Shape" d="m50 36.78v5.66l-11.44-11.44h5.66z" fill="#825a2c"/><path id="Shape" d="m47.47 12.63c-7.37 7.37-6.79 6.84-6.89 6.84-1.4082525-.1919081-2.6930767-.9056993-3.6-2-3.23-3.23-2.55-6.15-1.68-7.8.267107-.50756042.6036808-.97539802 1-1.39 0 0 4.21-4.28 9.16.72 1.1092998.90864954 1.8285451 2.2075851 2.01 3.63z" fill="#c81e1e"/><path id="Shape" d="m45 15.05-4.42 4.42c-1.4082525-.1919081-2.6930767-.9056993-3.6-2-3.23-3.23-2.55-6.15-1.68-7.8 1.7-.84 4.53-1.43 7.7 1.73 1.1100198.9152123 1.8260101 2.2218946 2 3.65z" fill="#f44335"/><path id="Shape" d="m50.41 22.41c-.7800749.7754472-2.0399251.7754472-2.82 0l-2.13-2.12c-1.81-1.81-3-.72-4.83-.82l6.84-6.84c.09 1.58-.66 2.49.12 3.93.31.56.52.72 2.82 3 .3817157.3759148.5966558.8892587.5966558 1.425s-.2149401 1.0490852-.5966558 1.425z" fill="#ffdc00"/></g><g id="Outline" fill="#000" transform="translate(-1 -1)"><path id="Shape" d="m6.68 5.32c.7870628.35362767 1.5289999.8001328 2.21 1.33.43136993.34035688 1.05654608.26890818 1.4-.16.1655394-.20909333.2407002-.4756479.2087773-.74041996-.0319229-.26477205-.1682844-.50582393-.3787773-.66958004-.9720065-.77064852-2.05843817-1.3847186-3.22-1.82-.35427794-1.41008792-1.66867472-2.36317684-3.11903865-2.26166194s-2.61917697 1.2284104-2.77357118 2.67410167c-.15439421 1.44569126.75007605 2.79400537 2.14629079 3.19952382s2.8822439-.24849586 3.52631904-1.55196355zm-2.68-2.32c.55228475 0 1 .44771525 1 1s-.44771525 1-1 1-1-.44771525-1-1 .44771525-1 1-1z"/><path id="Shape" d="m18.4 24.41c.3103466.0083498.6069691-.1279166.8028159-.3688082.1958469-.2408916.268702-.5590827.1971841-.8611918-.33-1.37-.68-2.69-1.06-3.93-.1846092-.4947957-.7221481-.7607423-1.2274761-.6072919s-.8042203.6733917-.6825239 1.1872919c.36 1.2.71 2.48 1 3.81.1063709.4500938.50751.7685238.97.77z"/><path id="Shape" d="m15.28 14.92c.3388877-.0007064.654358-.1729981.8381245-.4577352s.2108205-.6431699.0718755-.9522648c-.561744-1.2613105-1.2064912-2.4839917-1.93-3.66-.2927109-.46944203-.910558-.6127109-1.38-.31999999-.469442.29271092-.6127109.91055799-.32 1.37999999.6814763 1.0968976 1.2862533 2.2396256 1.81 3.42.1610883.358359.5171006.5891802.91.59z"/><path id="Shape" d="m24.16 21.3c.4061519-.003675.7697343-.2526499.92-.63.52-1.27 1.05-2.48 1.59-3.61.1158411-.2410827.1302755-.5185241.0400777-.7703263-.0901978-.2518023-.2775094-.4569765-.5200777-.5696737-.4998225-.2346165-1.0952085-.0197404-1.33.48-.55 1.16-1.1 2.41-1.63 3.72-.1270609.3092766-.0911433.6615927.0957149.9388661.1868581.2772733.4999295.4428119.8342851.4411339z"/><path id="Shape" d="m38.72 1.44c-1.3813402.39215836-2.6935743.99598844-3.89 1.79-.4149264.31816691-.5146987.90226974-.2289112 1.34012766.2857875.43785793.860643.58163481 1.3189112.32987234 1.0251199-.67748267 2.1482131-1.19349849 3.33-1.53.5329548-.14635547.8463554-.69704522.7-1.22999999-.1463555-.53295478-.6970452-.84635545-1.23-.70000001z"/><path id="Shape" d="m48 4.9c.3018894.19113709.6828172.20669896.9992915.04082359.3164743-.16587536.5204151-.48798754.535-.845.0145848-.35701245-.1624021-.6946865-.4642915-.88582359-1.2082894-.77173359-2.5219033-1.36454398-3.9-1.76-.5329548-.14911686-1.0858831.16204524-1.235.69500001s.1620452 1.08588309.695 1.23499999c1.1895845.34468836 2.324231.85645771 3.37 1.52z"/><path id="Shape" d="m59 21.53c.3103466.0083498.6069691-.1279166.8028159-.3688082.1958469-.2408916.268702-.5590827.1971841-.8611918-.3011851-1.3545468-.6818435-2.6901901-1.14-4-.1021733-.358433-.3952036-.6303011-.7602764-.7053706s-.7415999.0591183-.9769116.3481546c-.2353117.2890364-.2903551.684952-.142812 1.027216.413314 1.2390637.7538941 2.5012135 1.02 3.78.1047542.4651526.5233401.7916496 1 .78z"/><path id="Shape" d="m55.34 12.26c.3606768-.0015008.6925984-.1971113.8686386-.5119126s.1689181-.7000087-.0186386-1.0080874c-.7106941-1.18992886-1.5166663-2.32029641-2.41-3.38-.2304363-.27330818-.5891764-.40291904-.9410864-.34000943-.35191.0629096-.6435263.30878221-.765.645-.1214737.33621778-.0543499.71170125.1760864.98500943 2.32 2.74 2.1 3.61 3.09 3.61z"/><path id="Shape" d="m59.79 25.45c-.265544.0203885-.5119851.1458604-.6846882.3485989-.1727032.2027385-.2573994.465993-.2353118.7314011 0 .48.06 1 .08 1.47h-24.95v-10c0-1.1045695-.8954305-2-2-2h-2c-1.1045695 0-2 .8954305-2 2v10h-5.54c.18-.55.36-1.12.57-1.75.119947-.5040926-.165035-1.0163082-.6566111-1.1801668-.491576-.1638587-1.026891.0749245-1.2333889.5501668-.29.87-.78 2.38-.78 2.38s1 0-17.36 0c-1.1045695 0-2 .8954305-2 2v2c0 1.1045695.8954305 2 2 2h2v24c.00000002 1.6568542 1.34314577 3 3 3s3-1.3431458 3-3v-13.15l10.85-10.85h18.3l10.85 10.85v13.15c0 1.6568542 1.3431458 3 3 3s3-1.3431458 3-3v-24h2c1.1045695 0 2-.8954305 2-2 0-2.15 0-3.54-.14-5.62-.0179288-.2654608-.140908-.5128324-.341723-.6873725-.2008149-.1745401-.4629072-.2618568-.728277-.2426275zm-29.79-7.45h2v10h-2zm-16.64 16-2.36 2.36v-2.36zm-4.36 21h-2v-21h2zm-1 4c-.55228475 0-1-.4477153-1-1v-1h2v1c0 .5522847-.44771525 1-1 1zm3-17v-2.81l5.19-5.19h2.81zm32-8h2.83l5.17 5.19v2.81zm8 2.36-2.36-2.36h2.36zm3 22.64c-.5522847 0-1-.4477153-1-1v-1h2v1c0 .5522847-.4477153 1-1 1zm1-4h-2v-21h2zm-52-23v-2h56v2z"/><path id="Shape" d="m28.64 12.36c.94 0 .77-.78 3.11-3.61.2541834-.27181167.3364045-.66228776.2134132-1.01351975-.1229914-.35123199-.4308483-.60511395-.7990733-.65897601s-.7359011.10120643-.9543399.40249576c-.8735919 1.06091273-1.6785623 2.17651491-2.41 3.34-.1972883.3075001-.211179.6981163-.0362314 1.0188535.1749475.3207372.5108841.5205385.8762314.5211465z"/><path id="Shape" d="m40.76 7.8c-1.1904843.32623055-2.286974.92929986-3.2 1.76-.8307001.913026-1.4337695 2.0095157-1.76 3.2-.47 1.78-.42 4.52 2.47 7.41 1.0966465 1.3020438 2.6564975 2.1267926 4.35 2.3.5565061.0213729 1.1136055-.0222554 1.66-.13 1.84-.29 1.68-.14 4.6 2.78 1.182039 1.1014354 3.0240389 1.0689355 4.1664872-.0735128s1.1749482-2.9844482.0735128-4.1664872c-2.9-2.9-3.07-2.76-2.78-4.6.32-2 .17-3.67-2.17-6-2.89-2.9-5.63-2.95-7.41-2.48zm11 14.49c.1893127.1877666.2957983.4433625.2957983.71s-.1064856.5222334-.2957983.71c-.1877666.1893127-.4433625.2957983-.71.2957983s-.5222334-.1064856-.71-.2957983c-2.23-2.23-3.09-3.44-5-3.47l3-3c.0270644 1.1123574.5162378 2.1631743 1.35 2.9zm-5-10.6c.7930898.6819779 1.3670989 1.5829984 1.65 2.59l-6.13 6.13c-1.0070016-.2829011-1.9080221-.8569102-2.59-1.65-4.09-4.09-1.07-7.42-.69-7.76.12-.16 3.56-3.51 7.76.69z"/></g></g></svg>