<svg height="512pt" viewBox="0 0 512 512" width="512pt" xmlns="http://www.w3.org/2000/svg"><path d="m7.5 58.796875v382.125c8.84375-8.84375 13.804688-13.804687 22.648438-22.648437h54.101562c8.84375 8.84375 13.804688 13.804687 22.648438 22.648437l22.652343-22.648437h54.101563c8.84375 8.84375 13.800781 13.804687 22.648437 22.648437 8.84375-8.84375 13.804688-13.804687 22.648438-22.648437h54.101562c8.84375 8.84375 13.804688 13.804687 22.648438 22.648437 8.847656-8.84375 13.804687-13.804687 22.652343-22.648437h54.097657l22.652343 22.648437c8.84375-8.84375 13.804688-13.804687 22.648438-22.648437h54.101562c8.84375 8.84375 13.804688 13.804687 22.652344 22.648437v-382.125zm0 0" fill="#787680"/><path d="m378.925781 258.242188h-75.203125l.003906 5.140624-.074218-80.414062h-110.578125l-.074219 80.414062c13.578125 13.578126 21.1875 21.191407 34.765625 34.769532h40.546875l-.039062 40.503906 34.765624 34.769531h41.195313l34.765625-34.769531zm-109.964843 39.910156c.316406-.320313.632812-.632813.945312-.945313-.3125.3125-.628906.625-.945312.945313zm0 0" fill="#57565c"/><path d="m151.402344 106.898438-14.503906-14.5c-5.660157 5.664062-8.835938 8.839843-14.5 14.5h-70.394532c-5.664062-5.660157-8.839844-8.835938-14.503906-14.5v348.523437c8.84375-8.84375 13.804688-13.804687 22.648438-22.648437h54.101562c8.847656 8.84375 13.804688 13.804687 22.652344 22.648437l3.097656-3.101563v-80.25c0-27.613281-22.386719-50-50-50h10v-29.375h-6.878906c35.316406 0 65.648437-25.101562 72.253906-59.796874l21.226562-111.5zm0 0" fill="#57565c"/><path d="m7.5 58.796875v33.601563c5.664062 5.664062 8.839844 8.839843 14.503906 14.5h70.394532c5.664062-5.660157 8.835937-8.835938 14.5-14.5 5.664062 5.664062 8.839843 8.839843 14.503906 14.5h70.394531c5.664063-5.660157 8.839844-8.835938 14.503906-14.5 5.664063 5.664062 8.839844 8.839843 14.5 14.5h70.398438c5.660156-5.660157 8.835937-8.835938 14.5-14.5 5.664062 5.664062 8.839843 8.839843 14.503906 14.5h70.394531c5.664063-5.660157 8.839844-8.835938 14.503906-14.5 5.660157 5.664062 8.835938 8.839843 14.5 14.5h70.394532c5.664062-5.660157 8.839844-8.835938 14.503906-14.5v-33.601563zm0 0" fill="#ffe477"/><path d="m7.5 278.195312h62.5v29.378907h-62.5zm0 0" fill="#ffe477"/><path d="m504.5 307.574219h-62.5v-29.378907h62.5zm0 0" fill="#ffe477"/><path d="m121.402344 106.898438c-5.664063-5.660157-8.839844-8.835938-14.503906-14.5-5.660157 5.664062-8.835938 8.839843-14.5 14.5h-70.394532c-5.664062-5.660157-8.839844-8.835938-14.503906-14.5v185.796874h55.621094c35.316406 0 65.648437-25.101562 72.25-59.792968l21.230468-111.503906zm0 0" fill="#f072ae"/><path d="m489.996094 106.898438h-70.394532c-5.664062-5.660157-8.839843-8.835938-14.5-14.5l-14.503906 14.5h-35.199218l21.226562 111.503906c6.605469 34.691406 36.9375 59.792968 72.253906 59.792968h55.621094v-185.796874c-5.664062 5.664062-8.839844 8.839843-14.503906 14.5zm0 0" fill="#f072ae"/><path d="m106.898438 504.5h-99.398438v-63.578125c8.84375-8.84375 13.804688-13.804687 22.648438-22.648437h54.101562c8.84375 8.84375 13.804688 13.804687 22.648438 22.648437zm0 0" fill="#44ffe8"/><path d="m206.300781 504.5h-99.402343v-63.578125c8.847656-8.84375 13.804687-13.804687 22.652343-22.648437h54.101563c8.84375 8.84375 13.800781 13.804687 22.648437 22.648437zm0 0" fill="#44ffe8"/><path d="m305.699219 504.5h-99.398438v-63.578125c8.84375-8.84375 13.804688-13.804687 22.648438-22.648437h54.101562c8.84375 8.84375 13.804688 13.804687 22.648438 22.648437zm0 0" fill="#44ffe8"/><path d="m405.101562 504.5h-99.402343v-63.578125c8.847656-8.84375 13.804687-13.804687 22.652343-22.648437h54.097657c8.847656 8.84375 13.804687 13.804687 22.652343 22.648437zm0 0" fill="#44ffe8"/><path d="m504.5 504.5h-99.398438v-63.578125c8.84375-8.84375 13.800782-13.804687 22.648438-22.648437h54.101562c8.84375 8.84375 13.804688 13.804687 22.648438 22.648437zm0 0" fill="#44ffe8"/><path d="m452 307.574219c-27.613281 0-50 22.386719-50 50v80.25l3.101562 3.097656c8.84375-8.84375 13.800782-13.804687 22.648438-22.648437h54.101562c8.84375 8.84375 13.804688 13.804687 22.648438 22.648437v-133.347656zm0 0" fill="#f072ae"/><path d="m30.148438 418.273438h54.101562c8.84375 8.84375 13.804688 13.804687 22.648438 22.648437l3.101562-3.101563v-80.25c0-27.613281-22.386719-50-50-50h-52.5v133.351563c8.84375-8.84375 13.804688-13.804687 22.648438-22.648437zm0 0" fill="#f072ae"/><path d="m7.5 7.5h497v51.296875h-497zm0 0" fill="#44ffe8"/><path d="m163.074219 182.96875-.074219 80.414062c13.578125 13.578126 21.1875 21.191407 34.765625 34.769532h41.195313c13.578124-13.578125 21.191406-21.191406 34.765624-34.769532l-.074218-80.414062zm0 0" fill="#fff5cc"/><path d="m348.925781 258.242188h-75.203125l.003906 5.140624c-13.578124 13.578126-21.1875 21.191407-34.765624 34.769532h-.648438l-.039062 40.503906c13.578124 13.578125 21.191406 21.191406 34.765624 34.769531h41.195313c13.574219-13.578125 21.1875-21.191406 34.765625-34.769531zm0 0" fill="#bdfdff"/><g fill="#ffb655"><path d="m37.5 92.398438v-33.601563h-30v33.601563c5.664062 5.664062 8.839844 8.839843 14.503906 14.5h30c-5.664062-5.660157-8.839844-8.835938-14.503906-14.5zm0 0"/><path d="m136.832031 92.398438v-33.601563h-30v33.601563c5.664063 5.664062 8.839844 8.839843 14.503907 14.5h30c-5.664063-5.660157-8.839844-8.835938-14.503907-14.5zm0 0"/><path d="m236.164062 92.398438v-33.601563h-30v33.601563c5.664063 5.664062 8.839844 8.839843 14.503907 14.5h30c-5.664063-5.660157-8.839844-8.835938-14.503907-14.5zm0 0"/><path d="m335.5 92.398438v-33.601563h-30v33.601563c5.660156 5.664062 8.839844 8.839843 14.5 14.5h30c-5.660156-5.660157-8.835938-8.835938-14.5-14.5zm0 0"/><path d="m434.832031 92.398438v-33.601563h-30v33.601563c5.664063 5.664062 8.839844 8.839843 14.503907 14.5h30c-5.664063-5.660157-8.839844-8.835938-14.503907-14.5zm0 0"/><path d="m7.5 278.195312h30v29.378907h-30zm0 0"/><path d="m442 278.195312h30v29.378907h-30zm0 0"/></g><path d="m22.003906 106.898438c-5.664062-5.660157-8.839844-8.835938-14.503906-14.5v185.796874h30v-171.296874zm0 0" fill="#ff3f62"/><path d="m106.898438 92.398438c-5.660157 5.664062-8.835938 8.839843-14.5 14.5h29.003906c-5.664063-5.660157-8.839844-8.835938-14.503906-14.5zm0 0" fill="#ff3f62"/><path d="m405.101562 92.398438-14.503906 14.5h29.003906c-5.664062-5.660157-8.839843-8.835938-14.5-14.5zm0 0" fill="#ff3f62"/><path d="m504.5 92.398438c-5.664062 5.664062-8.839844 8.839843-14.503906 14.5h14.503906zm0 0" fill="#ff3f62"/><path d="m406.625 218.402344-21.226562-111.503906h-30l21.226562 111.5c6.605469 34.695312 36.9375 59.796874 72.253906 59.796874h30c-35.316406 0-65.648437-25.101562-72.253906-59.792968zm0 0" fill="#ff3f62"/><path d="m60.148438 418.273438h-30c-8.84375 8.84375-13.800782 13.804687-22.648438 22.648437v63.578125h30v-63.578125c8.84375-8.84375 13.804688-13.804687 22.648438-22.648437zm0 0" fill="#5aaae7"/><path d="m159.550781 418.273438h-30l-22.652343 22.648437v63.578125h30v-63.578125c8.847656-8.84375 13.804687-13.804687 22.652343-22.648437zm0 0" fill="#5aaae7"/><path d="m258.949219 418.273438h-30c-8.84375 8.84375-13.804688 13.804687-22.648438 22.648437v63.578125h30v-63.578125c8.84375-8.84375 13.804688-13.804687 22.648438-22.648437zm0 0" fill="#5aaae7"/><path d="m358.351562 418.273438h-30c-8.847656 8.84375-13.804687 13.804687-22.652343 22.648437v63.578125h30v-63.578125c8.847656-8.84375 13.804687-13.804687 22.652343-22.648437zm0 0" fill="#5aaae7"/><path d="m457.75 418.273438h-30c-8.84375 8.84375-13.804688 13.804687-22.648438 22.648437v63.578125h30v-63.578125c8.84375-8.84375 13.800782-13.804687 22.648438-22.648437zm0 0" fill="#5aaae7"/><path d="m432 357.574219c0-27.613281 22.386719-50 50-50h-30c-27.613281 0-50 22.386719-50 50v80.25l3.101562 3.097656c8.84375-8.84375 13.800782-13.804687 22.648438-22.648437h4.25zm0 0" fill="#ff3f62"/><path d="m481.851562 418.273438c8.84375 8.84375 13.800782 13.804687 22.648438 22.648437v-22.648437zm0 0" fill="#ff3f62"/><path d="m84.25 418.273438c8.84375 8.84375 13.804688 13.804687 22.648438 22.648437l3.101562-3.101563v-19.546874zm0 0" fill="#ff3f62"/><path d="m37.5 307.574219h-30v133.347656c8.84375-8.84375 13.804688-13.804687 22.648438-22.648437h7.351562zm0 0" fill="#ff3f62"/><path d="m7.5 7.5h30v51.296875h-30zm0 0" fill="#5aaae7"/><path d="m193 263.382812.074219-80.414062h-30l-.074219 80.414062c13.578125 13.578126 21.1875 21.191407 34.765625 34.769532h30c-13.578125-13.578125-21.1875-21.191406-34.765625-34.769532zm0 0" fill="#ffc477"/><path d="m268.273438 338.65625.039062-40.503906h.648438c13.574218-13.578125 21.1875-21.191406 34.765624-34.769532l-.003906-5.140624h-30l.003906 5.140624c-13.578124 13.578126-21.1875 21.191407-34.765624 34.769532h-.648438l-.039062 40.503906c13.578124 13.578125 21.1875 21.191406 34.765624 34.769531h30c-13.574218-13.578125-21.1875-21.191406-34.765624-34.769531zm0 0" fill="#96c8ef"/><path d="m424.644531 410.773438-19.542969 19.542968-19.542968-19.542968h-60.316406l-19.542969 19.542968-19.542969-19.542968h-60.3125l-19.542969 19.542968-19.542969-19.542968h-60.3125l-19.546874 19.542968-19.542969-19.542968h-60.3125l-27.042969 27.042968v74.183594h512v-74.183594l-27.042969-27.042968zm-325.246093 86.226562h-84.398438v-52.972656l18.257812-18.253906h47.886719l18.253907 18.253906zm99.402343 0h-84.402343v-52.972656l18.257812-18.253906h47.886719l18.257812 18.253906zm99.398438 0h-84.398438v-52.972656l18.253907-18.253906h47.890624l18.253907 18.253906zm99.402343 0h-84.402343v-52.972656l18.257812-18.253906h47.886719l18.257812 18.253906zm99.398438 0h-84.398438v-52.972656l18.253907-18.253906h47.890625l18.253906 18.253906zm0 0"/><path d="m0 0v95.503906l18.894531 18.894532h22.605469v123.933593h15v-123.933593h39.007812l11.394532-11.394532 11.394531 11.394532h76.609375l11.394531-11.394532 11.394531 11.394532h76.613282l11.394531-11.394532 11.394531 11.394532h75.367188l14.011718 73.503906 14.734376-2.808594-15.542969-81.523438 10.828125 10.828126h76.609375l18.894531-18.894532v-95.503906zm89.292969 99.398438h-64.183594l-10.109375-10.105469v-22.996094h84.398438v22.996094zm99.398437 0h-64.183594l-10.109374-10.105469v-22.996094h84.402343v22.996094zm99.402344 0h-64.1875l-10.105469-10.105469v-22.996094h84.398438v22.996094zm35.214844 0-10.109375-10.105469v-22.996094h84.402343v22.996094l-10.109374 10.105469zm173.691406-10.105469-10.109375 10.105469h-64.183594l-10.105469-10.105469v-22.996094h84.398438zm-482-37.996094v-36.296875h482v36.296875zm0 0"/><path d="m155.582031 175.46875-.085937 91.019531 39.164062 39.164063h47.40625l39.164063-39.164063-.085938-91.019531zm80.273438 115.179688h-34.980469l-30.371094-30.367188.066406-69.8125h95.589844l.0625 69.8125zm0 0"/><path d="m218.363281 262.976562c-10.320312 0-18.71875-8.394531-18.71875-18.714843h-15c0 18.589843 15.125 33.714843 33.71875 33.714843 18.589844 0 33.71875-15.125 33.71875-33.714843h-15c0 10.320312-8.398437 18.714843-18.71875 18.714843zm0 0"/><path d="m194.851562 212.851562h16.238282v15h-16.238282zm0 0"/><path d="m225.636719 212.851562h16.238281v15h-16.238281zm0 0"/><path d="m262.855469 345.75h15c0-8.699219 7.078125-15.777344 15.78125-15.777344 8.699219 0 15.777343 7.078125 15.777343 15.777344h15c0-16.972656-13.808593-30.777344-30.777343-30.777344-16.972657 0-30.78125 13.804688-30.78125 30.777344zm0 0"/><path d="m270.125 288.121094h16.238281v15h-16.238281zm0 0"/><path d="m300.910156 288.121094h16.238282v15h-16.238282zm0 0"/><path d="m15 315.074219h19.832031v74.925781h15v-74.925781h10.167969c23.433594 0 42.5 19.0625 42.5 42.5v51.964843h15v-51.964843c0-25.609375-16.824219-47.359375-40-54.777344v-18.382813c32.503906-5.859374 58.886719-31.234374 65.242188-64.613281l17.417968-91.5-14.734375-2.804687-17.417969 91.5c-5.925781 31.117187-33.210937 53.699218-64.886718 53.699218h-48.121094v-150.011718h-15v291.957031h15zm0-29.378907h47.5v14.378907h-47.5zm0 0"/><path d="m497 270.695312h-48.121094c-31.675781 0-58.960937-22.582031-64.886718-53.699218l-17.417969-91.5-14.734375 2.808594 17.417968 91.5c6.355469 33.375 32.738282 58.75 65.242188 64.609374v18.382813c-23.175781 7.421875-40 29.171875-40 54.777344v51.964843h15v-51.964843c0-23.433594 19.066406-42.5 42.5-42.5h5.125v69.425781h15v-69.425781h24.875v97.5625h15v-291.953125h-15zm0 29.378907h-47.5v-14.378907h47.5zm0 0"/><path d="m230.792969 318.144531-.023438 23.617188 39.164063 39.164062h47.40625l39.164062-39.164062-.085937-91.019531h-62.695313v15h47.707032l.066406 69.8125-30.367188 30.371093h-34.984375l-30.367187-30.371093.015625-17.398438zm0 0"/><path d="m487 246h-15v-69h15zm0-79h-15v-15h15zm0-25h-15v-15h15zm0 0" fill="#fff"/><path d="m487 40.167969h-71v-15h71zm-81 0h-15v-15h15zm-25 0h-15v-15h15zm0 0" fill="#fff"/><path d="m91.035156 253.238281-7.480468-13c10.40625-5.988281 17.65625-16.164062 19.894531-27.917969l6.226562-32.703124 14.734375 2.804687-6.226562 32.707031c-3.054688 16.046875-12.953125 29.9375-27.148438 38.109375zm35.242188-80.640625-14.734375-2.808594 2.808593-14.730468 14.734376 2.804687zm4.675781-24.558594-14.734375-2.804687 2.804688-14.738281 14.738281 2.808594zm0 0" fill="#fff"/></svg>