<?xml version="1.0" encoding="iso-8859-1"?>
<!-- Generator: Adobe Illustrator 19.0.0, SVG Export Plug-In . SVG Version: 6.00 Build 0)  -->
<svg version="1.1" id="Capa_1" xmlns="http://www.w3.org/2000/svg" xmlns:xlink="http://www.w3.org/1999/xlink" x="0px" y="0px"
	 viewBox="0 0 512 512" style="enable-background:new 0 0 512 512;" xml:space="preserve">
<rect x="10.068" y="143.962" style="fill:#FFC45C;" width="251.933" height="357.905"/>
<polygon style="fill:#346FD1;" points="136.032,9.997 10.066,143.962 261.999,143.962 "/>
<path style="fill:#6ABA3F;" d="M261.999,299.887h66.949c10.605,0,20.777,4.213,28.276,11.713l104.423,104.422
	c3.842,3.842,9.054,6,14.487,6h15.803c5.522,0,9.997,4.476,9.997,9.997v59.984c0,5.522-4.476,9.997-9.997,9.997h-40.853
	c-10.605,0-20.777-4.213-28.276-11.713L312.384,379.866h-50.385"/>
<path style="fill:#FC5271;" d="M199.016,143.962v154.111c0,5.522-4.476,9.997-9.997,9.997H83.046c-5.522,0-9.997-4.476-9.997-9.997
	V143.962H10.066v357.905h62.983V381.051c0-5.522,4.476-9.997,9.997-9.997h105.972c5.522,0,9.997,4.476,9.997,9.997v120.816h62.983
	V143.962H199.016z"/>
<path d="M491.938,412.027h-15.803c-2.803,0-5.438-1.092-7.419-3.072L364.294,304.531c-9.439-9.441-21.993-14.641-35.346-14.641
	h-56.952V143.962c0-2.65-1.039-5.054-2.722-6.843c0.003-0.002,0.005-0.004,0.008-0.005L143.315,3.149
	C141.426,1.14,138.791,0,136.032,0s-5.395,1.14-7.283,3.149L2.783,137.114c0.003,0.002,0.005,0.003,0.009,0.005
	c-1.685,1.79-2.723,4.192-2.723,6.843v357.905c0,5.522,4.477,9.997,9.997,9.997h251.933c5.521,0,9.997-4.476,9.997-9.997V389.863
	h36.246l107.495,107.495C425.178,506.8,437.731,512,451.084,512h40.853c11.025,0,19.995-8.97,19.995-19.995v-59.984
	C511.933,420.996,502.963,412.027,491.938,412.027z M136.032,24.591l102.843,109.373H33.19L136.032,24.591z M83.046,153.959h105.972
	v144.114H83.046C83.046,298.073,83.046,153.959,83.046,153.959z M189.018,491.869H83.046V381.051h105.972V491.869z M252.002,491.869
	h-42.989V381.051c0-11.025-8.97-19.995-19.995-19.995H83.046c-11.025,0-19.995,8.97-19.995,19.995v110.819H20.063v-337.91h42.989
	v144.114c0,11.025,8.97,19.995,19.995,19.995h105.972c11.025,0,19.995-8.97,19.995-19.995V153.959h42.989V491.869z M491.938,492.005
	h-40.853c-8.012,0-15.543-3.12-21.207-8.785L319.454,372.797c-1.876-1.875-4.418-2.928-7.069-2.928h-40.387v-59.984h56.952
	c8.012,0,15.544,3.12,21.207,8.785L454.58,423.093c5.758,5.757,13.413,8.929,21.557,8.929h15.803v59.984H491.938z"/>
<path d="M355.181,364.696c-3.905-3.904-10.233-3.904-14.139,0c-3.904,3.904-3.904,10.234,0,14.139l59.109,59.109
	c1.952,1.952,4.511,2.928,7.069,2.928s5.117-0.976,7.069-2.928c3.904-3.904,3.904-10.234,0-14.139L355.181,364.696z"/>
<path d="M437.239,446.755c-3.911-3.897-10.242-3.885-14.138,0.028c-3.896,3.912-3.884,10.242,0.028,14.138l0.123,0.123
	c1.95,1.943,4.503,2.914,7.055,2.914c2.564,0,5.131-0.981,7.083-2.942c3.896-3.912,3.884-10.242-0.028-14.138L437.239,446.755z"/>
<g>
</g>
<g>
</g>
<g>
</g>
<g>
</g>
<g>
</g>
<g>
</g>
<g>
</g>
<g>
</g>
<g>
</g>
<g>
</g>
<g>
</g>
<g>
</g>
<g>
</g>
<g>
</g>
<g>
</g>
</svg>
