<svg id="Capa_1" enable-background="new 0 0 511.49 511.49" height="512" viewBox="0 0 511.49 511.49" width="512" xmlns="http://www.w3.org/2000/svg"><g><g><path d="m49.494 165.053s-31.909 9.956-41.994 52.744c0 0 21.737 17.914 76.464 4.862h343.562c54.726 13.052 76.464-4.862 76.464-4.862-10.085-42.788-41.994-52.744-41.994-52.744l-193.862-71.616z" fill="#985e33"/><path d="m474.47 159.471-55.201 24.705h-327.047l-55.201-24.705c-21.481-9.611-33.133-33.092-27.8-56.016l19.044-81.747c2.398-10.288 13.621-12.985 20.825-8.368 2.855 1.821 5.074 4.806 5.85 8.925l13.462 71.17 83.438 9.383h207.81l83.438-9.383 13.462-71.17c1.482-7.85 8.208-11.572 14.576-11.054 5.403.438 10.567 3.91 12.099 10.497l19.044 81.747c5.333 22.924-6.318 46.405-27.799 56.016z" fill="#f9f6f9"/><path d="m455.446 117.424c-24.317 14.795-120.59 14.795-120.59 14.795l3.851-29.401h20.944l83.438-9.383 13.462-71.17c1.482-7.85 8.208-11.572 14.576-11.054 1.621 30.575 2.735 95.01-15.681 106.213z" fill="#dfdde2"/><path d="m161.054 165.053-8.308 19.123h-60.524l-55.201-24.705c-21.481-9.611-33.133-33.092-27.8-56.016l19.044-81.747c2.398-10.288 13.621-12.985 20.825-8.368-4.756 27.262-16.039 102.979 1.811 120.829 21.879 21.88 110.153 30.884 110.153 30.884z" fill="#dfdde2"/><path d="m428.995 257.504c0-134.108-77.568-180.637-173.253-180.637s-173.252 46.529-173.252 180.637 77.568 242.824 173.253 242.824 173.252-108.716 173.252-242.824z" fill="#c17d4f"/><path d="m255.739 500.322c-95.676 0-173.244-108.71-173.244-242.822 0-133.525 76.881-180.229 171.981-180.627-53.619.726-96.86 47.56-96.86 180.627-.001 134.111 43.927 242.822 98.123 242.822z" fill="#985e33"/><ellipse cx="255.743" cy="393.593" fill="#e4936b" rx="134.532" ry="106.734"/><path d="m351.369 468.658c-24.387 19.561-58.226 31.67-95.627 31.67-74.304 0-134.53-47.788-134.53-106.74 0-42.047 30.645-78.414 75.19-95.806-24.038 19.283-38.893 45.798-38.893 75.061 0 58.952 60.235 106.74 134.54 106.74 21.293-.001 41.431-3.931 59.32-10.925z" fill="#dd6938"/><g fill="#384649"><ellipse cx="194.221" cy="399.154" rx="27.425" ry="20.382"/><ellipse cx="317.264" cy="399.154" rx="27.425" ry="20.382"/></g><path d="m395.16 97.664c-13.343 31.64-92.104 4.985-92.104 4.985s-6.268 51.738-47.311 51.738-47.311-51.738-47.311-51.738-78.762 26.655-92.104-4.985c-13.343-31.63 50.465-41.291 50.465-41.291s-38.097-13.621-28.108-33.063c9.999-19.452 79.996-4.865 117.058 14.586 37.063-19.452 107.059-34.038 117.058-14.586 9.989 19.442-28.108 33.063-28.108 33.063s63.808 9.661 50.465 41.291z" fill="#665e66"/><path d="m255.745 154.387c-41.043 0-47.311-51.738-47.311-51.738s-78.762 26.655-92.104-4.985c-13.343-31.63 50.465-41.291 50.465-41.291s-38.097-13.621-28.108-33.063c9.999-19.452 79.996-4.865 117.058 14.586-22.556-9.82-45.649.823-34.098 16.852 0 0-27.421-3.489-27.421 19.017 0 22.516 42.067 23.898 42.067 23.898s-8.765 43.561 19.452 56.724z" fill="#454045"/></g><g><path d="m194.221 427.036c19.258 0 34.925-12.508 34.925-27.882s-15.667-27.882-34.925-27.882-34.925 12.508-34.925 27.882 15.667 27.882 34.925 27.882zm0-40.764c10.801 0 19.925 5.899 19.925 12.882s-9.125 12.882-19.925 12.882-19.925-5.899-19.925-12.882 9.124-12.882 19.925-12.882z"/><path d="m352.19 399.154c0-15.374-15.667-27.882-34.925-27.882s-34.926 12.508-34.926 27.882c0 15.635 15.341 27.882 34.926 27.882 19.258 0 34.925-12.508 34.925-27.882zm-54.851 0c0-6.983 9.125-12.882 19.926-12.882s19.925 5.899 19.925 12.882-9.124 12.882-19.925 12.882-19.926-5.899-19.926-12.882z"/><ellipse cx="138.69" cy="243.15" rx="22.611" ry="33.792"/><ellipse cx="372.795" cy="243.15" rx="22.611" ry="33.792"/><path d="m511.29 216.077c-6.441-27.33-21.098-42.48-32.366-50.419 23.805-11.436 36.665-38.045 30.649-63.905l-19.044-81.745c-2.287-9.832-10.507-16.349-20.537-16.349-.16 0-.321.001-.481.005-10.251.212-18.421 7.126-20.33 17.207l-12.433 65.729-32.286 3.631c.176-4.664-.905-9.179-3.254-13.372-6.593-11.768-22.121-18.953-35.126-23.088 6.012-4.147 11.762-9.567 14.368-16.162 2.313-5.85 1.972-11.982-.984-17.732-4.742-9.226-19.65-18.44-63.737-9.957-4.067.783-6.73 4.714-5.948 8.782.783 4.066 4.713 6.732 8.782 5.947 31.036-5.972 45.448-2.026 47.563 2.084.987 1.92 1.101 3.521.379 5.353-2.828 7.181-16.431 14.373-24.332 17.215-3.234 1.156-5.268 4.361-4.939 7.78.328 3.419 2.939 6.179 6.334 6.698 14.011 2.142 38.497 9.579 44.56 20.417 1.12 2.004 2.354 5.278.128 10.554-5.315 12.608-29.231 11.587-43.012 9.857-20.385-2.559-39.595-8.994-39.784-9.058-2.133-.721-4.48-.439-6.389.757-1.908 1.197-3.179 3.195-3.458 5.431-.016.12-1.564 12.078-7.655 23.666-7.491 14.253-18.329 21.48-32.211 21.48s-24.719-7.227-32.211-21.48c-6.091-11.588-7.641-23.546-7.654-23.652-.271-2.241-1.539-4.241-3.449-5.444-1.911-1.203-4.262-1.481-6.4-.758-23.545 7.966-74.764 18.252-82.795-.8-2.225-5.275-.992-8.549.129-10.553 6.062-10.838 30.548-18.275 44.554-20.417 3.398-.515 6.011-3.273 6.342-6.694s-1.706-6.628-4.942-7.785c-6.659-2.379-21.367-9.714-24.328-17.207-.726-1.835-.613-3.438.377-5.364.66-1.285 2.572-2.483 5.385-3.373 19.251-6.093 69.533 4.396 101.508 21.177 2.182 1.145 4.788 1.146 6.97 0 9.188-4.82 20.636-9.411 33.106-13.278 3.957-1.227 6.17-5.428 4.943-9.385-1.228-3.956-5.427-6.17-9.385-4.942-11.817 3.664-22.843 7.972-32.148 12.551-32.857-16.181-85.158-28.131-109.523-20.42-6.85 2.167-11.628 5.808-14.201 10.818-2.957 5.751-3.298 11.883-.986 17.733 2.606 6.595 8.357 12.015 14.369 16.162-13.006 4.136-28.534 11.32-35.126 23.088-2.349 4.193-3.43 8.708-3.254 13.372l-32.285-3.631-12.433-65.732c-1.91-10.079-10.079-16.993-20.33-17.205-10.234-.224-18.695 6.355-21.019 16.342l-19.045 81.749c-6.015 25.857 6.846 52.467 30.651 63.902-11.268 7.939-25.925 23.089-32.367 50.42-.655 2.781.326 5.692 2.53 7.509.695.573 7.186 5.689 20.785 8.843 7.235 1.678 15.069 2.516 23.467 2.516 9.031 0 18.716-.977 28.991-2.915-.651 8.201-.982 16.69-.982 25.476 0 58.731 14.914 115.711 42.003 160.602 4.034 14.904 11.738 29.015 22.891 41.64 2.743 3.104 7.482 3.397 10.586.655s3.397-7.482.655-10.586c-14.666-16.601-22.418-36.043-22.418-56.225 0-54.716 56.985-99.23 127.03-99.23 70.05 0 127.04 44.514 127.04 99.23 0 54.722-56.99 99.241-127.04 99.241-30.732 0-60.412-8.722-83.573-24.56-3.418-2.338-8.086-1.461-10.424 1.958s-1.462 8.086 1.958 10.424c25.63 17.526 58.317 27.178 92.04 27.178 37.622 0 73.063-11.68 99.795-32.888 19.895-15.783 33.252-35.451 39.015-56.926 27.054-44.879 41.949-101.822 41.949-160.513 0-8.785-.331-17.275-.982-25.475 10.276 1.937 19.96 2.914 28.991 2.914 8.396 0 16.233-.838 23.468-2.516 13.598-3.154 20.089-8.271 20.784-8.843 2.206-1.818 3.186-4.729 2.531-7.509zm-112.168-110.15 44.804-5.039c3.271-.368 5.92-2.825 6.531-6.059l13.462-71.168c.86-4.544 4.735-4.976 5.902-5 1.178-.007 5.052.248 6.099 4.749l19.044 81.744c4.509 19.382-5.398 39.347-23.558 47.472l-47.592 21.3c-8.149-23.181-20.205-42.701-36.129-58.427 4.816-2.375 8.633-5.566 11.437-9.572zm-382.597-.771 19.045-81.748c1.047-4.5 4.933-4.753 6.1-4.747 1.167.024 5.042.457 5.902 4.999l13.462 71.17c.611 3.234 3.26 5.691 6.531 6.059l44.804 5.039c2.805 4.006 6.621 7.197 11.437 9.571-15.924 15.726-27.981 35.247-36.13 58.427l-47.592-21.3c-18.159-8.126-28.067-28.09-23.559-47.47zm-.3 109.043c8.308-27.576 26.453-38.024 33.085-41.011l33.916 15.179c-2.364 8.869-4.215 18.215-5.562 28.021-34.357 7.325-53.685 1.411-61.439-2.189zm380.662 166.517c-3.578-25.945-17.94-49.895-41.353-68.468-26.732-21.207-62.173-32.886-99.795-32.886-37.618 0-73.056 11.679-99.787 32.886-23.412 18.574-37.774 42.526-41.351 68.472-15.995-36.854-24.61-79.484-24.61-123.214 0-62.281 17.142-108.472 50.943-137.38 7.823.876 16.953.663 27.391-.66 13.613-1.726 26.438-4.958 34.377-7.218 1.334 5.339 3.605 12.515 7.337 19.722 10.136 19.571 25.94 29.916 45.705 29.916s35.569-10.345 45.705-29.916c3.732-7.207 6.003-14.383 7.337-19.722 7.938 2.26 20.764 5.493 34.377 7.218 10.439 1.323 19.57 1.536 27.393.66 33.801 28.908 50.942 75.1 50.942 137.38.001 43.728-8.617 86.355-24.611 123.21zm36.94-164.328c-1.347-9.806-3.198-19.152-5.562-28.021l33.912-15.177c6.563 2.979 24.796 13.495 33.097 41.042-7.666 3.585-26.939 9.52-61.447 2.156z"/></g></g></svg>