<?xml version="1.0" encoding="iso-8859-1"?>
<!-- Generator: Adobe Illustrator 19.0.0, SVG Export Plug-In . SVG Version: 6.00 Build 0)  -->
<svg version="1.1" id="Capa_1" xmlns="http://www.w3.org/2000/svg" xmlns:xlink="http://www.w3.org/1999/xlink" x="0px" y="0px"
	 viewBox="0 0 512 512" style="enable-background:new 0 0 512 512;" xml:space="preserve">
<circle style="fill:#FFEABD;" cx="264" cy="88" r="40"/>
<path style="fill:#FFDD95;" d="M275,122c-22.091,0-40-17.909-40-40c0-12.91,6.122-24.383,15.614-31.697
	C235.107,55.81,224,70.604,224,88c0,22.091,17.909,40,40,40c9.182,0,17.635-3.101,24.386-8.303C284.2,121.184,279.696,122,275,122z"
	/>
<path style="fill:#FFEABD;" d="M387.09,0.384c-8.626-1.917-17.173,3.522-19.09,12.148L345.392,87.98c0,0-49.392,56.02-49.384,56.02
	H224l-24-48l22.357-72c2.794-8.383-1.736-17.444-10.119-20.238C203.856,0.967,194.793,5.498,192,13.881L168.821,88
	c-1.184,3.551-1.085,7.404,0.279,10.89L208,184v80l-48,104l-31.045,124.115c-2.143,8.573,3.069,17.26,11.642,19.403
	c1.303,0.325,2.608,0.481,3.893,0.481c7.169,0,13.692-4.854,15.51-10.128L200,376l40-88h16c0,0,5.399,84.449,5.844,88L312,497.982
	c1.012,8.096,7.903,14.018,15.855,14.018c0.662,0,1.332-0.041,2.005-0.126c8.769-1.096,14.988-9.092,13.892-17.86L304,368
	c0,0-9.854-104-8-120c0-8,8-64,8-64l67.313-76.687c2.152-2.151,3.646-4.872,4.306-7.843l23.619-79.996
	C401.155,10.848,395.716,2.301,387.09,0.384z"/>
<circle style="fill:#676779;" cx="296" cy="48" r="16"/>
<path style="fill:#7D7D8C;" d="M264,48c-22.091,0-40,17.909-40,40h80C304,65.909,286.091,48,264,48z"/>
<path style="fill:#676779;" d="M272,48.802c-2.585-0.525-5.26-0.802-8-0.802c-22.091,0-40,17.909-40,40h16
	C240,68.648,253.742,52.508,272,48.802z"/>
<g>
	<path style="fill:#FCD308;" d="M288,184c-4.418,0-8-3.582-8-8v-32c0-4.418,3.582-8,8-8s8,3.582,8,8v32
		C296,180.418,292.418,184,288,184z"/>
	<path style="fill:#FCD308;" d="M224.008,192.002c-0.52,0-1.047-0.052-1.577-0.157c-4.333-0.866-7.142-5.081-6.276-9.414l8-40
		c0.867-4.332,5.081-7.135,9.414-6.275c4.333,0.866,7.142,5.081,6.276,9.414l-8,40C231.084,189.372,227.744,192.002,224.008,192.002
		z"/>
</g>
<path style="fill:#9D5CAD;" d="M208,184l104-8l-8,72l28.658,93.14c1.628,5.29-2.48,10.596-8.009,10.344l-152.836-6.947
	c-5.656-0.257-9.263-6.148-6.92-11.302L200,256L208,184z"/>
<path style="fill:#8759B5;" d="M227.305,182.515L208,184l-8,72l-35.107,77.235c-2.343,5.155,1.263,11.045,6.92,11.302l8.616,0.392
	L216,256L227.305,182.515z"/>
<g>
	<polygon style="fill:#FCD308;" points="304,248 305.124,237.887 204.98,211.182 203.193,227.264 306.06,254.695 	"/>
	<polygon style="fill:#FCD308;" points="309.275,265.142 189.811,278.416 182.104,295.371 314.064,280.709 	"/>
</g>
<g>
	<polygon style="fill:#FDC40A;" points="222.189,215.771 204.98,211.182 203.193,227.264 219.742,231.677 	"/>
	<polygon style="fill:#FDC40A;" points="207.835,276.413 189.811,278.416 182.104,295.371 201.096,293.261 	"/>
</g>
<g>
	<path style="fill:#FFE17A;" d="M472,104c-13.233,0-24-10.767-24-24c0-4.418-3.582-8-8-8s-8,3.582-8,8c0,13.233-10.767,24-24,24
		c-4.418,0-8,3.582-8,8s3.582,8,8,8c13.233,0,24,10.767,24,24c0,4.418,3.582,8,8,8s8-3.582,8-8c0-13.233,10.767-24,24-24
		c4.418,0,8-3.582,8-8S476.418,104,472,104z"/>
	<path style="fill:#FFE17A;" d="M440,360c-13.233,0-24-10.767-24-24c0-4.418-3.582-8-8-8s-8,3.582-8,8c0,13.233-10.767,24-24,24
		c-4.418,0-8,3.582-8,8s3.582,8,8,8c13.233,0,24,10.767,24,24c0,4.418,3.582,8,8,8s8-3.582,8-8c0-13.233,10.767-24,24-24
		c4.418,0,8-3.582,8-8S444.418,360,440,360z"/>
	<path style="fill:#FFE17A;" d="M144,296c-13.233,0-24-10.767-24-24c0-4.418-3.582-8-8-8s-8,3.582-8,8c0,13.233-10.767,24-24,24
		c-4.418,0-8,3.582-8,8s3.582,8,8,8c13.233,0,24,10.767,24,24c0,4.418,3.582,8,8,8s8-3.582,8-8c0-13.233,10.767-24,24-24
		c4.418,0,8-3.582,8-8S148.418,296,144,296z"/>
	<path style="fill:#FFE17A;" d="M88,104c4.418,0,8-3.582,8-8c0-17.645,14.355-32,32-32c4.418,0,8-3.582,8-8s-3.582-8-8-8
		c-17.645,0-32-14.355-32-32c0-4.418-3.582-8-8-8s-8,3.582-8,8c0,17.645-14.355,32-32,32c-4.418,0-8,3.582-8,8s3.582,8,8,8
		c17.645,0,32,14.355,32,32C80,100.418,83.582,104,88,104z"/>
</g>
<path style="fill:#8759B5;" d="M72,236c-4.418,0-8-3.582-8-8v-76c0-3.443,2.204-6.501,5.47-7.59l72-24
	c5.096-1.694,10.53,2.221,10.53,7.59v67c0,4.418-3.582,8-8,8s-8-3.582-8-8v-55.9l-56,18.666V228C80,232.418,76.418,236,72,236z"/>
<path style="fill:#FF6BB5;" d="M48,200c-17.645,0-32,12.202-32,27.2s14.355,27.2,32,27.2s32-12.202,32-27.2S65.645,200,48,200z"/>
<path style="fill:#FA3EAF;" d="M48,244.4c-15.635,0-28.678-9.583-31.449-22.2c-0.356,1.622-0.551,3.292-0.551,5
	c0,14.998,14.355,27.2,32,27.2s32-12.202,32-27.2c0-1.708-0.195-3.378-0.551-5C76.678,234.817,63.635,244.4,48,244.4z"/>
<path style="fill:#FF6BB5;" d="M120,169.6c-17.645,0-32,12.202-32,27.2s14.355,27.2,32,27.2s32-12.202,32-27.2
	S137.645,169.6,120,169.6z"/>
<path style="fill:#FA3EAF;" d="M120,213c-15.429,0-28.341-9.33-31.342-21.7c-0.431,1.777-0.658,3.616-0.658,5.5
	c0,14.998,14.355,27.2,32,27.2s32-12.202,32-27.2c0-1.884-0.227-3.723-0.658-5.5C148.341,203.67,135.429,213,120,213z"/>
<path style="fill:#8759B5;" d="M416,276.6c-4.418,0-8-3.582-8-8v-75c0-3.443,2.203-6.501,5.47-7.59l72-24
	c5.096-1.695,10.53,2.221,10.53,7.59v66c0,4.418-3.582,8-8,8s-8-3.582-8-8v-54.9l-56,18.666V268.6
	C424,273.018,420.418,276.6,416,276.6z"/>
<path style="fill:#FF6BB5;" d="M392,241.6c-17.645,0-32,12.202-32,27.2s14.355,27.2,32,27.2s32-12.202,32-27.2
	S409.645,241.6,392,241.6z"/>
<path style="fill:#FA3EAF;" d="M392,285c-15.428,0-28.341-9.33-31.342-21.7c-0.431,1.777-0.658,3.616-0.658,5.5
	c0,14.998,14.355,27.2,32,27.2s32-12.202,32-27.2c0-1.884-0.227-3.723-0.658-5.5C420.341,275.67,407.428,285,392,285z"/>
<path style="fill:#FF6BB5;" d="M464,211.2c-17.645,0-32,12.202-32,27.2s14.355,27.199,32,27.199s32-12.201,32-27.199
	S481.645,211.2,464,211.2z"/>
<path style="fill:#FA3EAF;" d="M464,254.6c-15.428,0-28.341-9.329-31.342-21.699c-0.431,1.777-0.658,3.616-0.658,5.5
	c0,14.998,14.355,27.199,32,27.199s32-12.201,32-27.199c0-1.884-0.227-3.723-0.658-5.5C492.341,245.271,479.428,254.6,464,254.6z"/>
<g>
</g>
<g>
</g>
<g>
</g>
<g>
</g>
<g>
</g>
<g>
</g>
<g>
</g>
<g>
</g>
<g>
</g>
<g>
</g>
<g>
</g>
<g>
</g>
<g>
</g>
<g>
</g>
<g>
</g>
</svg>
