<svg height="512" viewBox="0 0 74 74" width="512" xmlns="http://www.w3.org/2000/svg"><g id="color_line" data-name="color line"><path d="m52.6 71.5a.5.5 0 0 1 -.5-.5v-1.331a3.964 3.964 0 0 1 .2-1.232l.339-1.038a2.959 2.959 0 0 0 -.322-2.524 3.966 3.966 0 0 1 -.582-2.743l.376-2.453a.5.5 0 1 1 .988.151l-.376 2.453a2.966 2.966 0 0 0 .436 2.052 3.957 3.957 0 0 1 .432 3.375l-.339 1.037a2.951 2.951 0 0 0 -.146.922v1.331a.5.5 0 0 1 -.506.5z" fill="#323c6b"/><path d="m22.4 55.534a.5.5 0 0 1 -.5-.5v-1.424a4.18 4.18 0 0 1 .209-1.309l.361-1.109a3.2 3.2 0 0 0 -.35-2.731 4.211 4.211 0 0 1 -.617-2.912l.4-2.626a.5.5 0 1 1 .988.151l-.4 2.626a3.216 3.216 0 0 0 .471 2.221 4.2 4.2 0 0 1 .459 3.582l-.362 1.11a3.192 3.192 0 0 0 -.159 1v1.424a.5.5 0 0 1 -.5.497z" fill="#323c6b"/><path d="m52.6 22.385a14.153 14.153 0 0 0 -14.154 14.154c0 9.026 6.337 19.532 14.153 19.532s14.154-10.506 14.154-19.532a14.153 14.153 0 0 0 -14.153-14.154z" fill="#05afd6"/><path d="m56.637 59.755a5.341 5.341 0 0 0 -4.037-3.685 5.341 5.341 0 0 0 -4.038 3.684z" fill="#05afd6"/><path d="m56.638 60.255h-8.076a.5.5 0 0 1 -.489-.6 5.848 5.848 0 0 1 4.527-4.085 5.851 5.851 0 0 1 4.527 4.08.5.5 0 0 1 -.489.6zm-7.388-1h6.7a5.066 5.066 0 0 0 -3.35-2.685 5.065 5.065 0 0 0 -3.35 2.685z" fill="#323c6b"/><path d="m66.75 36.54c0 7.38-4.24 15.77-10.07 18.56a23.64 23.64 0 0 0 6.57-16.06 14.143 14.143 0 0 0 -14.15-14.15 13.961 13.961 0 0 0 -6.38 1.52 14.15 14.15 0 0 1 24.03 10.13z" fill="#27a2db"/><path d="m52.6 56.57c-8.252 0-14.653-10.768-14.653-20.032a14.653 14.653 0 0 1 29.307 0c-.001 9.262-6.402 20.032-14.654 20.032zm0-33.685a13.669 13.669 0 0 0 -13.654 13.654c0 8.62 6.09 19.032 13.653 19.032s13.654-10.412 13.654-19.032a13.669 13.669 0 0 0 -13.653-13.654z" fill="#323c6b"/><path d="m22.4 3a15.149 15.149 0 0 0 -15.153 15.149c0 9.661 6.782 20.906 15.149 20.906s15.149-11.245 15.149-20.906a15.149 15.149 0 0 0 -15.145-15.149z" fill="#fe7058"/><path d="m37.55 18.15c0 7.85-4.48 16.74-10.65 19.8a25.261 25.261 0 0 0 7.15-17.3 15.147 15.147 0 0 0 -22.1-13.46 15.143 15.143 0 0 1 25.6 10.96z" fill="#ea6453"/><path d="m26.718 43a5.717 5.717 0 0 0 -4.318-3.945 5.717 5.717 0 0 0 -4.326 3.945z" fill="#fe7058"/><g fill="#323c6b"><path d="m26.719 43.5h-8.645a.5.5 0 0 1 -.489-.6 6.221 6.221 0 0 1 4.815-4.345 6.221 6.221 0 0 1 4.812 4.338.5.5 0 0 1 -.489.6zm-7.96-1h7.275a5.464 5.464 0 0 0 -3.634-2.945 5.464 5.464 0 0 0 -3.641 2.945z"/><path d="m22.4 39.555c-8.813 0-15.649-11.507-15.649-21.406a15.649 15.649 0 1 1 31.3 0c-.006 9.899-6.842 21.406-15.651 21.406zm0-36.055a14.665 14.665 0 0 0 -14.653 14.649c0 9.243 6.534 20.406 14.649 20.406s14.649-11.163 14.649-20.406a14.665 14.665 0 0 0 -14.645-14.649z"/><path d="m66.836 48.75a.5.5 0 0 1 -.447-.724 27.4 27.4 0 0 0 2.494-7.486.5.5 0 1 1 .984.171 28.384 28.384 0 0 1 -2.584 7.764.5.5 0 0 1 -.447.275z"/><path d="m69.676 38.875h-.042a.5.5 0 0 1 -.457-.54c.018-.218.023-.433.029-.648v-.17a.5.5 0 0 1 1 .031v.167c-.007.233-.014.467-.033.7a.5.5 0 0 1 -.497.46z"/><path d="m9 6.452a.5.5 0 0 1 -.369-.837 18.7 18.7 0 0 1 5.907-4.355.5.5 0 0 1 .424.906 17.7 17.7 0 0 0 -5.593 4.123.5.5 0 0 1 -.369.163z"/><path d="m16.906 1.387a.5.5 0 0 1 -.153-.976c.294-.094.593-.174.892-.254a.534.534 0 0 1 .647.343.47.47 0 0 1 -.319.6l-.07.019c-.283.075-.565.15-.843.24a.507.507 0 0 1 -.154.028z"/></g><path d="m14.922 32.109a.649.649 0 0 1 -.539-.285 28.56 28.56 0 0 1 -3.6-7.4.65.65 0 1 1 1.24-.388 27.263 27.263 0 0 0 3.433 7.057.65.65 0 0 1 -.537 1.015z" fill="#fff"/><path d="m10.813 22.69a.65.65 0 0 1 -.635-.513c-.051-.24-.09-.479-.128-.719l-.023-.146a.65.65 0 1 1 1.283-.208l.023.148c.035.217.069.434.116.65a.651.651 0 0 1 -.5.772.659.659 0 0 1 -.136.016z" fill="#fff"/></g></svg>